<?xml version="1.0" encoding="utf-8"?>
<!-- Generator: Adobe Illustrator 22.1.0, SVG Export Plug-In . SVG Version: 6.00 Build 0)  -->
<svg version="1.1" id="Line" xmlns="http://www.w3.org/2000/svg" xmlns:xlink="http://www.w3.org/1999/xlink" x="0px" y="0px"
	 viewBox="0 0 512 512" style="enable-background:new 0 0 512 512;" xml:space="preserve">
<path d="M144,167.6c-0.6-10.6,4.3-21.2,13-28.4c5.7-4.9,12.9-7.8,20.4-8.3c0.3,0,0.6-0.1,0.8-0.1c12.2-2.2,28.3-2.2,46.6-0.1
	c4.4,0.5,8.4-2.7,8.9-7c0.3-2.4-0.5-4.8-2.2-6.5c-10.3-10.5-18.1-20.5-23.2-29.5c-0.1-0.2-0.3-0.5-0.4-0.7c-4.4-6.1-6.7-13.5-6.6-21
	c0-18.7,13.8-33.9,30.7-33.9c7,0,13.7,2.6,18.9,7.2c3,2.6,7.5,2.6,10.5,0c5.2-4.6,11.9-7.2,18.9-7.2c16.9,0,30.7,15.2,30.7,33.9
	c0.1,7.5-2.3,14.9-6.6,21c-0.2,0.2-0.3,0.5-0.4,0.7c-5.2,9-13,19-23.2,29.5c-3.1,3.2-3,8.2,0.2,11.3c1.7,1.7,4.1,2.5,6.5,2.2
	c18.3-2.1,34.4-2,46.6,0.1c0.3,0,0.5,0.1,0.8,0.1c7.5,0.6,14.6,3.5,20.4,8.3c0.9,0.8,1.8,1.6,2.7,2.4l11.4-11.3
	c-1.2-1.2-2.5-2.4-3.8-3.5c-8.2-6.9-18.4-11.1-29-12c-10.2-1.6-20.5-2.2-30.7-1.7c4.5-5.5,8.5-11.3,12.1-17.4
	c6.2-8.8,9.4-19.3,9.4-30c0-27.5-20.9-49.9-46.7-49.9c-8.6,0-17,2.5-24.2,7.2c-7.2-4.7-15.6-7.2-24.2-7.2
	c-25.7,0-46.7,22.4-46.7,49.9c-0.1,10.7,3.2,21.2,9.4,30c3.6,6.1,7.6,11.9,12.1,17.4c-10.3-0.5-20.6,0.1-30.7,1.7
	c-10.7,0.9-20.8,5.1-29.1,12c-12.5,10.4-19.5,25.9-18.7,41.5L144,167.6z"/>
<path d="M272.9,205c-0.1-0.3-0.2-0.5-0.3-0.8c-1.1-3-2.2-6.4-3.1-10c-2-7.5-9.6-11.9-17.1-9.9c-4.9,1.3-8.6,5.1-9.9,9.9
	c-0.9,3.6-2,6.9-3.1,10c-0.1,0.3-0.2,0.5-0.3,0.8c-4.6,17-20.7,28.2-38.2,26.8l-1.7,15.9c1.7,0.2,3.4,0.3,5.2,0.3
	c12.1-0.1,23.8-4.4,33.1-12.1c4.1-3.4,7.7-7.4,10.6-11.9V296h16v-72.1c5.1,7.8,12.1,14.1,20.3,18.4l7.3-14.2
	c-2.4-1.2-4.7-2.8-6.8-4.5C279,218.8,274.9,212.3,272.9,205L272.9,205z"/>
<path d="M248,312h16v184h-16V312z"/>
<path d="M272,56h16v16h-16V56z"/>
<path d="M496,288v-4c0-15.5-12.5-28-28-28h-17.6c-3.2-13.3-7.8-26.2-13.9-38.5c7.5-13.6,2.5-30.6-11-38.1c-3.9-2.2-8.3-3.4-12.8-3.5
	c-8.9-20.3-32.5-29.5-52.7-20.7c-9.2,4-16.6,11.4-20.7,20.7c-15.5,0.4-27.7,13.2-27.3,28.7c0.1,4.5,1.3,8.9,3.5,12.8
	C302.7,243.2,296,273,296,304c0,33.2,7.7,65,22.2,91.8c1.4,2.6,4.1,4.2,7,4.2H368v96h16v-96h42.7c2.9,0,5.6-1.6,7-4.2
	c7.4-13.8,13-28.5,16.6-43.8h7.6c21,0,38-17,38-38v-10h-16v10c0,12.1-9.9,22-22,22h-4.4c3.3-21.2,3.3-42.8,0-64H468
	c6.6,0,12,5.4,12,12v4H496z M433.9,352H318.1c-8.1-31.5-8.1-64.5,0-96H392v-16h-68.8c2-5.5,4.3-10.8,7-16h91.7
	c2.6,5.2,4.9,10.5,7,16H408v16h25.9C442,287.5,442,320.5,433.9,352z M340,192c1,0,2,0.1,2.9,0.4c4.3,1.1,8.6-1.5,9.7-5.8
	c0,0,0-0.1,0-0.1c3.1-12.9,16-20.9,28.9-17.8c8.8,2.1,15.7,9,17.8,17.8c1,4.3,5.3,7,9.6,5.9c0,0,0.1,0,0.1,0
	c6.4-1.6,13,2.3,14.6,8.8c0.2,0.9,0.4,1.9,0.4,2.9c0,1.4-0.2,2.7-0.7,4h-94.6c-2.2-6.3,1.1-13.1,7.3-15.3
	C337.3,192.2,338.6,192,340,192z M330.1,384c-2.6-5.2-4.9-10.5-7-16h105.6c-2,5.5-4.3,10.8-7,16H330.1z"/>
<path d="M336,280h16v16h-16V280z"/>
<path d="M392,312h16v16h-16V312z"/>
<path d="M216,344h-25.8l-3.6-14.3c-6.9-27.6-7.5-56.3-2-84.2l6.7-33.6c0.4-1.2,0.6-2.5,0.6-3.8c0-22.8-60-24-72-24s-72,1.2-72,24
	c0,1.3,0.2,2.6,0.6,3.8l6.7,33.6c1.3,6.4,2.2,12.8,2.8,19.3l15.9-1.5c-0.7-7-1.7-14-3.1-20.9l-3.3-16.7c18.6,5.9,44.8,6.3,52.3,6.3
	s33.7-0.5,52.3-6.3l-3.3,16.7c-4.6,22.9-5.2,46.5-2,69.7h-15v-4c0-15.5-12.5-28-28-28h-8c-15.5,0-28,12.5-28,28v4H73
	c1.5-10.6,2.2-21.4,2-32.1l-16,0.3c0.3,16.7-1.7,33.4-5.7,49.6L49.8,344H24c-4.4,0-8,3.6-8,8c0,22.1,17.9,40,40,40h56v104h16V392h56
	c22.1,0,40-17.9,40-40C224,347.6,220.4,344,216,344L216,344z M66.2,208c6.9-3.4,25.5-8,53.8-8s46.9,4.6,53.8,8
	c-6.9,3.4-25.5,8-53.8,8S73.1,211.4,66.2,208z M169.8,328c0.4,1.9,0.8,3.7,1.3,5.6l2.6,10.4h-24.5c1.8-3.7,2.7-7.8,2.7-12v-4H169.8z
	 M104,308c0-6.6,5.4-12,12-12h8c6.6,0,12,5.4,12,12v4h-16v16h16v4c0,6.6-5.4,12-12,12h-8c-6.6,0-12-5.4-12-12L104,308z M68.9,333.6
	c0.5-1.9,0.9-3.7,1.3-5.6H88v4c0,4.2,0.9,8.3,2.7,12H66.2L68.9,333.6z M184,376H56c-10.2,0-19.2-6.4-22.6-16h173.3
	C203.2,369.6,194.2,376,184,376z"/>
<path d="M136,248h16v16h-16V248z"/>
</svg>
