<?xml version="1.0" encoding="utf-8"?>
<!-- Generator: Adobe Illustrator 22.1.0, SVG Export Plug-In . SVG Version: 6.00 Build 0)  -->
<svg version="1.1" id="Layer_1" xmlns="http://www.w3.org/2000/svg" xmlns:xlink="http://www.w3.org/1999/xlink" x="0px" y="0px"
	 viewBox="0 0 700 700" style="enable-background:new 0 0 700 700;" xml:space="preserve">
<style type="text/css">
	.st0{fill:none;stroke:#000000;stroke-miterlimit:10;}
</style>
<path class="st0" d="M585.2,375.6c-0.1,0.5-0.3,1-0.6,1.5l-7.1,10.6v9.8c0,0.9-0.3,1.8-0.9,2.5l-16,20c-0.8,1-2.1,1.6-3.5,1.5
	c-1.3-0.1-2.5-0.9-3.2-2.1l-3.3-6.1l-18.2,19.9c-0.9,1-2.1,1.4-3.4,1.3c-1.3-0.1-2.4-0.9-3-2l-2.5-4.5l-20.3,19.4
	c-1.1,1-2.6,1.4-3.9,0.9c-1.4-0.4-2.4-1.6-2.7-3l-1.7-7.8l-19.8,15.2c-0.7,0.6-1.6,0.8-2.4,0.8c-0.4,0-0.8-0.1-1.2-0.2
	c0.4-1.3,0.8-2.5,1.2-3.8c0.7-2.1,1.3-4.3,1.8-6.4l20.5-15.8c1.1-0.8,2.5-1.1,3.8-0.6s2.2,1.6,2.5,2.9l1.5,7l18.8-18
	c0.9-0.9,2.1-1.3,3.4-1.1c1.2,0.2,2.3,0.9,2.9,2l2.3,4.2l18.3-19.9c0.9-1,2.2-1.4,3.4-1.3c1.3,0.2,2.4,0.9,3,2l3.1,5.7l11.4-14.2
	v-9.6c0-0.8,0.2-1.6,0.7-2.2l7-10.5c1.4,0.4,2.7,0.8,4.1,1.1C582.6,375.2,583.9,375.4,585.2,375.6z"/>
<path class="st0" d="M510.5,176c0,42.1-30.1,77.2-69.9,84.9c-5.2-7.9-10.9-15.4-17.1-22.4c-16.2-18.7-35.2-34.4-56.5-46.1
	c-9.4-5.2-19.2-9.5-29.4-13c0-1.1-0.1-2.2-0.1-3.3c0-47.8,38.7-86.5,86.5-86.5S510.5,128.2,510.5,176z"/>
<path class="st0" d="M484.5,179c0,32.9-26.6,59.5-59.5,59.5c-0.5,0-1,0-1.5,0c-16.2-18.7-35.2-34.4-56.5-46.1
	c-1-4.3-1.5-8.8-1.5-13.4c0-32.9,26.6-59.5,59.5-59.5S484.5,146.1,484.5,179z"/>
<path class="st0" d="M215.5,181v0.2c-9.9,3.8-19.5,8.5-28.6,14c-19.9,11.9-37.7,27.5-52.9,45.6c-6.8,8.1-13,16.6-18.7,25.6
	C74,259.8,42.5,224.1,42.5,181c0-47.8,38.7-86.5,86.5-86.5S215.5,133.2,215.5,181z"/>
<path class="st0" d="M188.5,181.5c0,4.7-0.5,9.3-1.6,13.7c-19.9,11.9-37.7,27.5-52.9,45.6c-1.7,0.1-3.3,0.2-5,0.2
	c-32.9,0-59.5-26.6-59.5-59.5S96.1,122,129,122S188.5,148.6,188.5,181.5z"/>
<path class="st0" d="M194.8,554.8c-1.6,4.7-4.3,11.5-7.3,15.7c-5,7-15,7-18,16s-2,20,13,22s29.8-7.8,35-14
	c4.4-5.3,9.5-11.3,10.1-29.6"/>
<path class="st0" d="M372.6,551.8c1.1,3.6,4.5,14,8.6,19.7c5,7,15,7,18,16s2,20-13,22s-29.8-7.8-35-14c-4.6-5.5-10.1-12-10.1-32.6"
	/>
<path class="st0" d="M437.5,477.5c0,14-3.2,27.5-9,40c-15.9,13.8-35.1,25.4-55.8,34.3c-10.2,4.4-20.8,8.1-31.5,11.1
	c-20.2,5.6-40.9,8.6-60.6,8.6c-17,0-35-2.3-52.9-6.6c-11-2.6-22-6-32.8-10.1c-22.2-8.5-43.2-19.9-60.6-33.7
	c-7.5-13.8-11.7-28.9-11.7-44.7c0-65.7,71.8-110,158-110S437.5,411.8,437.5,477.5z"/>
<path class="st0" d="M510.5,359.5c-1,7.8-3.2,12.6-6,16c-2.6,3.1-5.7,5-9,7c-3.8,2.2-9.1,3.4-15.1,3.1c0.7,20.1-1.1,39.4-5.9,57.4
	c-0.6,2.2-1.2,4.3-1.8,6.4c-0.4,1.3-0.8,2.5-1.2,3.8c-5.2,15.6-12.8,30.1-23,43.2c-5.8,7.5-12.5,14.5-20,21c5.8-12.5,9-26,9-40
	c0-65.7-70.8-111-157-111s-158,44.3-158,110c0,15.7,4.2,30.8,11.7,44.7c-9.9-7.8-18.6-16.4-25.7-25.7C86.6,467,75.4,431.8,75.8,394
	c-3.4,1.1-6.8,1.6-13.3,2.4c-8,1.1-22-1-24-16c-2-14.9,10-24.8,16.2-26c5-1,12-1,23-5c1.3-0.5,2.6-1,3.9-1.6
	c6.5-29,18.1-56.8,33.7-81.5c5.7-9,12-17.6,18.7-25.6c15.2-18.2,33-33.7,52.9-45.6c9.1-5.5,18.6-10.1,28.6-14
	c19.6-7.5,40.7-11.7,63-11.7c20.7,0,40.5,3.5,59.1,9.8c10.2,3.5,20,7.9,29.4,13c21.3,11.7,40.3,27.4,56.5,46.1
	c6.1,7.1,11.8,14.6,17.1,22.4c15,22.5,26.3,48.1,33,75.3c9.8,3.3,16.2,3.3,20.9,4.3C500.7,341.7,512.5,344.6,510.5,359.5z"/>
<path class="st0" d="M307.5,300.5c-0.7,1.2-2.8,0.1-5,1c-4,1.6-2.9,7.8-6,13c-4.8,8.1-16.5,9-17,9c-6.5,0.4-15-2-19-8
	c-2.2-3.3-2.8-7.3-6-8c-2.2-0.5-3.6,1-6,0c-1.5-0.7-3.4-2.4-3-4c0.3-1.2,1.6-1.8,2-2c4.8,2.1,16.3,8.3,31,6c11.6-1.9,24-10,26-12
	C306.2,293.8,308.3,299.2,307.5,300.5z"/>
<path class="st0" d="M199.5,234.5c0,1,0,1-1,2c-0.3,0.3-2,0.4-3.6,0.5c-1.4,0.1-2.8,0.2-3.4,0.5c-2.2,1.1-4,2.8-4,2c0-1.4,3-7,9-7
	c0.7,0,1.3,0.1,1.8,0.3C199,233.1,199.5,233.7,199.5,234.5z"/>
<path class="st0" d="M286.3,286.5l-6.6,5.9c-0.4,0.4-1.1,0.4-1.5,0l-6.6-5.9c-0.8-0.7-0.3-2,0.8-2h13.1
	C286.6,284.5,287.1,285.8,286.3,286.5z"/>
<path class="st0" d="M354.5,232.5c0,1.1-6.9,1-8,1s-3-0.9-3-2s1.9-2,3-2S354.5,231.4,354.5,232.5z"/>
<path class="st0" d="M113.7,365.5c0,0,0.6,9.2-18.2,19c-10.9,5.7-15.2,8.1-19.7,9.6"/>
<path class="st0" d="M81.6,347.9c9.8-4.7,20.2-13.4,20.2-13.4"/>
<path class="st0" d="M292.5,307.5c-0.3,1.6-1.1,5-4,8l-0.1,0.1c-2-1.9-5.2-3.1-8.9-3.1c-4.9,0-9,2.2-10.4,5.2
	c-4.2-2.6-6.2-6.5-6.6-7.2c4.4,0.6,10.3,0.9,17,0C284.6,309.8,289,308.7,292.5,307.5z"/>
<path class="st0" d="M288.4,315.6c-5.9,5.9-14.5,4-14.9,3.9c-1.7-0.4-3.2-1.1-4.4-1.8c1.4-3,5.6-5.2,10.4-5.2
	C283.2,312.5,286.4,313.7,288.4,315.6z"/>
<path class="st0" d="M199.5,234.5c0,1,0,1-1,2c-0.3,0.3-2,0.4-3.6,0.5c-1.4,0.1-2.8,0.2-3.4,0.5c-2.2,1.1-4,2.8-4,2c0-1.4,3-7,9-7
	c0.7,0,1.3,0.1,1.8,0.3C199,233.1,199.5,233.7,199.5,234.5z"/>
<path class="st0" d="M447.5,320.5c0,0,5.1,4.3,11.6,8.5c3.9,2.5,8.4,5,12.4,6.5c0.7,0.3,1.4,0.5,2.1,0.7"/>
<path class="st0" d="M435.5,351.5c0,0,1,6,16,21c9.1,9.1,19.7,12.8,28.9,13.1l0,0"/>
<path class="st0" d="M662.5,310c0,36.7-29.8,66.5-66.5,66.5c-3.7,0-7.3-0.3-10.8-0.9c-1.3-0.2-2.6-0.5-3.9-0.8
	c-1.4-0.3-2.8-0.7-4.1-1.1c-27.6-8.1-47.7-33.6-47.7-63.8c0-36.7,29.8-66.5,66.5-66.5S662.5,273.3,662.5,310z"/>
<circle class="st0" cx="604" cy="319" r="3.5"/>
<circle class="st0" cx="616.5" cy="282.5" r="14"/>
<circle class="st0" cx="356" cy="260" r="6.5"/>
<ellipse class="st0" cx="346.5" cy="270" rx="32" ry="29.5"/>
<circle class="st0" cx="213" cy="266" r="6.5"/>
<ellipse class="st0" cx="204.5" cy="275" rx="32" ry="29.5"/>
<path class="st0" d="M348.5,201c0,3.3-1.9,6.2-4.7,7.6c-1.2,0.6-2.5,0.9-3.8,0.9c-4.7,0-8.5-3.8-8.5-8.5c0-4.4,3.3-8,7.6-8.5
	c0.3,0,0.6,0,0.9,0C344.7,192.5,348.5,196.3,348.5,201z"/>
</svg>
