<?xml version="1.0" encoding="utf-8"?>
<!-- Generator: Adobe Illustrator 22.1.0, SVG Export Plug-In . SVG Version: 6.00 Build 0)  -->
<svg version="1.1" id="Layer_1" xmlns="http://www.w3.org/2000/svg" xmlns:xlink="http://www.w3.org/1999/xlink" x="0px" y="0px"
	 viewBox="0 0 438.3 482.9" style="enable-background:new 0 0 438.3 482.9;" xml:space="preserve">
<style type="text/css">
	.st0{fill:none;stroke:#000000;stroke-miterlimit:10;}
	.st1{fill:none;stroke:#000000;stroke-linecap:round;stroke-linejoin:round;stroke-miterlimit:10;}
	.st2{fill:none;stroke:#000000;stroke-linejoin:round;stroke-miterlimit:10;}
</style>
<path class="st0" d="M374.7,375.3c-21.7-20.1-29.9-50-25.4-87.7c3.1-10.3,4.7-20.7,5.2-30.9c13.7-9.6,22.6-0.1,23.1,28.5
	c0.2,10.1,1.5,20.1,3.7,29.9c4,17.9,9,33.5,15.1,46.2c1.8,3.7,2.7,7.9,2.3,12c-1.1,9.6-8,10.5-19.1,5.3
	C377.8,377.7,376.1,376.6,374.7,375.3z"/>
<path class="st0" d="M134.8,185.1c0,0-0.1,1-0.3,2.8c0.1-0.4,0.1-0.8,0.2-1.3c0.1-0.5,0.2-1,0.3-1.6L134.8,185.1z M88.7,223.5
	c0.2-1.9,0.4-3.8,0.7-5.6c-0.3,1.8-0.5,3.6-0.8,5.4c0,0.2-0.1,0.5-0.1,0.7c-0.6,5.3-1,10.3-1,15.2v0.5c0,5.4,0.3,10.6,1,15.6l0,0
	c0,0.4,0.1,0.8,0.1,1.2c0-0.4-0.1-0.7-0.1-1.1c0-0.5-0.1-1.1-0.1-1.6c-0.7-9.3-0.8-19.2,0.2-29.4C88.7,224,88.7,223.7,88.7,223.5z
	 M88.6,255.3c-0.1-0.5-0.1-1.1-0.1-1.6 M89.4,217.7c1.7-12.7,5-25.8,10.6-38.9"/>
<path class="st0" d="M355.2,100c-22.2,5.4-42.2,14.2-59.2,27.5c-4.2-2-8.3-3.9-12.3-5.6h-11.5c0,0-22.2,1.6-32.3,8.8
	c-10.1,7.2-19.8,16.6-19.8,16.6c-17.1-27-68.5-25.5-68.5-25.5c-2.3,1.7-3.5,2.7-3.5,2.7l-59.3-23.7l-0.7-0.3l0.5,35.8l11.2,42.3
	c-5.2,14-8.7,27-10.6,38.9c0,0,0,0,0,0.1c-0.3,1.9-0.5,3.8-0.7,5.6c1,3,2.1,6.1,3.3,9.1c0,0.1,0.1,0.2,0.1,0.3
	c22.1,56.8,67.8,104.5,140.4,141.9H232l-10,1.4c3.3,0.2,6.7,0.1,10-0.4h0.3c0.8-0.1,1.6-0.3,2.4-0.4c4-0.8,8-1.7,11.8-2.6
	c8.2-2,15.8-4.4,22.9-7c46.6-17.2,69.3-45.8,78.9-75.6c0.3-0.8,0.5-1.7,0.8-2.5c3.1-10.3,4.7-20.7,5.2-30.9
	c2.4-43.5-14.3-81.6-14.3-81.6C349.7,151.9,354.8,126.9,355.2,100z M252.4,250.6L252.4,250.6c-0.4-0.2-0.7-0.5-1-0.7
	c-0.2-0.1-0.3-0.2-0.5-0.3c-1.3-0.8-2.1-1.5-2.3-1.7c-0.1,0-0.1,0-0.1,0c0,4.9-0.8,8.9-2.1,12.3c-6,16.2-23.4,16.2-23.6,16.2
	c-14.6,2.6-21.6-5.8-24.8-14c-0.7-1.7-1.2-3.3-1.5-4.9c-1.3-5.1-1.4-9.3-1.4-9.3l0,0c-60.1,49.5-62.4-22.7-61.1-51.9v-0.1
	c0-0.2,0-0.5,0-0.7c0-0.7,0-1.4,0-2.1c0-0.3,0-0.7,0-1c0-1,0.1-2,0.3-3c0.1-0.5,0.1-1,0.2-1.4l0,0v-0.1c0.2-1.8,0.3-2.8,0.3-2.8h0.2
	V185c1.5-7.7,4-14.2,4-14.2s43.4-50.7,76.7,1.8c0,0,3,5.8,4.3,16.4c14-39.9,34.4-40.2,34.4-40.2c2.8-0.4,5.4-0.6,7.9-0.6
	c0.6,0,1.2,0,1.7,0s0.9,0,1.4,0.1c0.4,0,0.8,0,1.2,0.1c0.1,0,0.2,0,0.3,0c0.3,0,0.6,0.1,0.9,0.1s0.7,0.1,1,0.1
	c0.4,0,0.8,0.1,1.2,0.2c0.3,0,0.5,0.1,0.8,0.1c0.4,0.1,0.9,0.2,1.3,0.3c0.5,0.1,1,0.2,1.5,0.3c0.3,0.1,0.5,0.1,0.7,0.2
	c0.5,0.2,1.1,0.3,1.6,0.5c0.7,0.2,1.4,0.5,2.1,0.7c0.3,0.1,0.6,0.2,0.9,0.3c0.6,0.2,1.1,0.5,1.7,0.7c0.2,0.1,0.4,0.2,0.7,0.3
	c0.3,0.1,0.5,0.3,0.8,0.4c0.3,0.2,0.6,0.3,1,0.5c3.1,1.7,5.8,3.7,8.1,5.9c0.1,0.1,0.3,0.3,0.4,0.4s0.3,0.3,0.4,0.4
	c0.7,0.6,1.3,1.3,1.9,2c0.2,0.2,0.4,0.5,0.6,0.7c1.4,1.6,2.6,3.2,3.7,4.9c0.3,0.5,0.6,1,0.9,1.5c0.7,1.1,1.3,2.2,1.9,3.3
	c0.1,0.3,0.3,0.5,0.4,0.8c1.8,3.4,3,6.5,3.8,9.1c0.2,0.5,0.3,1,0.5,1.5c0.4,1.3,0.7,2.4,0.9,3.1h0.6c0,0,0.1,0.7,0.2,1.9
	c0.2,1.9,0.4,5.2,0.6,9.4l0,0C309.2,226.4,306.9,295,252.4,250.6z"/>
<path class="st0" d="M232.5,374.7h-0.3l-10,1.4c-0.1,0-0.3,0-0.4,0c-6.4-0.4-16.7-1.5-28.7-4.1c-7.3-1.6-15.2-3.8-23.3-6.7l0,0
	c-30-10.9-62.7-32.5-75.5-75.1l0,0c-3-10-3.7-21.3-5.5-33.7c0-0.4-0.1-0.7-0.1-1.1c0.1,0.1,0.1,0.1,0.1,0.1
	c-0.1-0.6-0.2-1.1-0.2-1.7c-0.7-9.3-0.8-19.2,0.2-29.4c0-0.3,0-0.5,0.1-0.8c1,3,2.1,6.1,3.3,9.1c0,0.1,0.1,0.2,0.1,0.3
	C114.2,289.6,159.9,337.3,232.5,374.7z"/>
<path class="st0" d="M244.2,108.8c-39.6-8.6-66.8-0.6-81.9,6.8c-1.6,0.8-3.1,1.6-4.4,2.3c-0.4,0.2-0.8,0.4-1.1,0.7
	c-2,1.2-3.7,2.3-5,3.3c0,0,51.3-1.5,68.5,25.5c0,0,9.6-9.4,19.8-16.6c10.1-7.2,32.3-8.8,32.3-8.8h11.5c-9.6-4.1-18.6-7.4-27.1-9.8
	C252.4,110.8,248.3,109.7,244.2,108.8"/>
<path class="st1" d="M305.8,187.7c-56-24.8-84,6.3-84,6.3v19.5c0,0,19.4,5.4,26.8,34.4c0,0,0,0,0.1,0c0.2,0.2,1.1,0.8,2.3,1.7
	c0.1,0.1,0.3,0.2,0.5,0.3c0.3,0.2,0.7,0.4,1,0.7c-0.8-0.6-1.5-1.3-2.3-2C251.6,249.5,308.6,283.3,305.8,187.7z M238.5,220.9
	c-5.6,0-10.1-5.6-10.1-12.4c0-6.9,4.5-12.4,10.1-12.4c2.3,0,4.5,1,6.2,2.6c0.4,0.4,0.8,0.9,1.2,1.4c1.7,2.2,2.7,5.2,2.7,8.4
	C248.5,215.3,244,220.9,238.5,220.9z"/>
<path class="st1" d="M220.5,193.2C179,168,139.1,183.3,135,185v0.1h1.4c-1.4,41.3,8.3,59.2,20.3,66.1c0.5,0.3,1,0.5,1.5,0.8
	c4.7,2.3,9.8,3,14.5,2.9c0.3,0,0.6,0,0.9,0c0.7,0,1.4-0.1,2.1-0.2c1.1-0.1,2.1-0.3,3.1-0.5c0.3,0,0.5-0.1,0.8-0.1
	c1.9-0.4,3.8-0.9,5.5-1.4c0.3-0.1,0.6-0.2,0.9-0.3c2.7-0.9,4.9-1.9,6.5-2.6c0.3-0.2,0.6-0.3,0.9-0.5c0.4-0.2,0.8-0.4,1.1-0.6
	c0.1-0.1,0.3-0.1,0.4-0.2l0,0l0,0l0,0l0.1-0.1l0,0l0.1-0.1l0,0c4.7-28.6,24.2-34.4,24.2-34.4C220.7,206,220.9,199,220.5,193.2z
	 M203.2,220.9c-5.3,0-9.5-5.6-9.5-12.4c0-6.9,4.3-12.4,9.5-12.4c2.1,0,4,0.9,5.6,2.4c0.8,0.8,1.6,1.8,2.2,2.9c1.1,2,1.7,4.5,1.7,7.2
	C212.7,215.3,208.5,220.9,203.2,220.9z"/>
<path class="st0" d="M246.5,260.2c-6.1,16.2-23.4,16.2-23.6,16.2c-14.6,2.6-21.6-5.8-24.8-14c-0.7-1.6-1.2-3.3-1.6-4.9
	c0,0,2.6-10,23.6,2.6C220.1,260.2,240.6,246.5,246.5,260.2z"/>
<path class="st0" d="M248.5,247.9c0,4.9-0.8,8.9-2.1,12.3c-5.8-13.8-26.4,0-26.4,0c-21-12.7-23.6-2.7-23.6-2.7
	c-1.3-5.1-1.4-9.3-1.4-9.3c4.7-28.6,24.2-34.4,24.2-34.4c1.3-7.9,1.5-14.9,1.1-20.7c0.4,0.3,0.9,0.5,1.3,0.8v19.6
	C221.8,213.5,241.1,219,248.5,247.9z"/>
<path class="st0" d="M305.8,186.8c0,0.3,0,0.6,0,0.9c-56-24.8-84,6.3-84,6.3c-0.4-0.3-0.8-0.5-1.3-0.8c-0.1-1.4-0.2-2.6-0.4-3.9
	c0-0.1,0-0.2,0-0.3l0,0c14-39.9,34.4-40.2,34.4-40.2c2.8-0.4,5.4-0.6,7.9-0.6c0.6,0,1.2,0,1.7,0s0.9,0,1.4,0.1c0.4,0,0.8,0,1.2,0.1
	c0.1,0,0.2,0,0.3,0c0.3,0,0.6,0.1,0.9,0.1s0.7,0.1,1,0.1c0.4,0,0.8,0.1,1.2,0.2c0.3,0,0.5,0.1,0.8,0.1c0.4,0.1,0.9,0.2,1.3,0.3
	c0.5,0.1,1,0.2,1.5,0.3c0.3,0.1,0.5,0.1,0.7,0.2c0.5,0.2,1.1,0.3,1.6,0.5c0.7,0.2,1.4,0.5,2.1,0.7c0.3,0.1,0.6,0.2,0.9,0.3
	c0.6,0.2,1.1,0.5,1.7,0.7c0.2,0.1,0.4,0.2,0.7,0.3c0.3,0.1,0.5,0.3,0.8,0.4c0.3,0.2,0.6,0.3,1,0.5c3.1,1.7,5.8,3.7,8.1,5.9
	c0.1,0.1,0.3,0.3,0.4,0.4s0.3,0.3,0.4,0.4c0.7,0.6,1.3,1.3,1.9,2c0.2,0.2,0.4,0.5,0.6,0.7c1.4,1.6,2.6,3.2,3.7,4.9
	c0.3,0.5,0.6,1,0.9,1.5c0.7,1.1,1.3,2.2,1.9,3.3c0.1,0.3,0.3,0.5,0.4,0.8c1.8,3.4,3,6.5,3.8,9.1c0.2,0.5,0.3,1,0.5,1.5
	c0.4,1.3,0.7,2.4,0.9,3.1L305.8,186.8z"/>
<path class="st1" d="M89.1,100.5c0,0.2,0,0.3-0.1,0.4l-0.7-0.3l-1-0.4l0,0l-1.4-4.3l-7.1-22.5c-0.8-2.4,0.6-4.9,3-5.7s4.9,0.6,5.7,3
	c0.1,0.4,0.2,0.8,0.2,1.1l1.4,27.4L89.1,100.5z"/>
<path class="st1" d="M84.6,99.3c-1.3-1.1-2.5-2.3-3.8-3.4c-2.2-1.9-4.4-3.7-6.6-5.5c-1.1-0.9-2.2-1.8-3.4-2.7s-2.4-1.6-3.6-2.4
	c-1.2-0.8-2.4-1.7-3.4-2.6c-1.1-0.9-2.1-2-2.2-3.9c-0.1-2.4,1.7-4.4,4.1-4.6c0.1,0,0.3,0,0.4,0c1.9,0.1,3,1,3.9,2.1
	c1,1.1,1.8,2.2,2.7,3.4c0.8,1.2,1.6,2.4,2.5,3.6c0.8,1.2,1.8,2.3,2.7,3.4c1.8,2.2,3.7,4.4,5.6,6.5c0.8,0.9,1.6,1.8,2.4,2.7"/>
<path class="st1" d="M88.3,100.7h-0.9l-1.4-0.1l-27.3-1.2c-2.5-0.1-4.5-2.2-4.3-4.8c0.1-2.5,2.2-4.5,4.8-4.3c0.5,0,0.9,0.1,1.4,0.3
	l24.2,8.8l2.7,1l0,0L88.3,100.7z"/>
<path class="st1" d="M361.1,70.7l-5.9,29.3l-4.1-29.6c-0.4-2.8,1.6-5.3,4.3-5.7c2.8-0.4,5.3,1.6,5.7,4.3
	C361.2,69.5,361.2,70.1,361.1,70.7L361.1,70.7z"/>
<path class="st1" d="M377.7,79.2L355.2,100l15.5-26.4c1.3-2.2,4.1-2.9,6.2-1.6c2.2,1.3,2.9,4.1,1.6,6.2
	C378.3,78.6,378,78.9,377.7,79.2L377.7,79.2z"/>
<path class="st2" d="M382.2,99.3l-26.9,0.7l25.2-9.5c2.4-0.9,5,0.3,5.9,2.7s-0.3,5-2.7,5.9C383.2,99.2,382.6,99.3,382.2,99.3
	L382.2,99.3z"/>
<path class="st0" d="M211.7,61.9c14.2,4.1,7.9-5.6,7.9-5.6c16.5-3.7,0.8-12.7,0.8-12.7c15.6-9.5-4.2-10.6-4.2-10.6
	c5.1-17.2-10.8-7.5-10.8-7.5c-6.2-17-14.7-1.3-14.7-1.3C178.1,9.8,174.4,28,174.4,28c-16-3.1-8.8,12.6-8.8,12.6
	c-15.2,2.7-3.7,12.4-3.7,12.4c-0.4,0.8-0.8,1.5-1,2.2c-5,11.8,10,7.7,10,7.7c-6.1,14.3,10.1,8.2,10.1,8.2c3.9-2.3,4.8-2.8,5-2.9
	c-14.4,9.8-25.3,41.4-28,49.7c1.3-0.8,2.8-1.5,4.4-2.3c15.1-7.4,42.3-15.4,81.9-6.8c0,0,0,0,0.1,0c4,0.9,8.2,1.9,12.4,3.2
	C255.1,102.2,218.7,64.8,211.7,61.9z M211.6,61.9c-0.2,0-0.4-0.1-0.6-0.2C211.2,61.7,211.4,61.8,211.6,61.9z"/>
<path class="st0" d="M226.1,81c-16.4-5.5-51.1,8-51.1,8c1.9-7.7,10.1-14.7,10.1-14.7c7.5,9.4,12.1-1.4,12.1-1.4
	c7.1,10.6,14.7-2.9,14.7-2.9C225,76.5,226.1,81,226.1,81L226.1,81z"/>
<path class="st0" d="M244.3,108.9C244.2,108.9,244.2,108.8,244.3,108.9c-39.7-8.7-66.9-0.7-81.9,6.7l6.2-13.7c0,0,16-12.1,66.3-8.6
	c0,0,3.6,1.5,7.4,10.5C243.3,106.5,243.9,108,244.3,108.9z"/>
<path class="st0" d="M94.2,293c0,1.4,0,2.8,0,4.2c-0.2,50.1-13.6,65.3-13.6,65.3c-0.5,0.6-1,1.1-1.5,1.7c0,0,0,0,0,0.1
	c-8.3,9.2-14.6,14.6-19.4,17.3c-1.7,1-3.2,1.6-4.5,2c-5.3,1.5-8.1-1.1-9.5-4.4c-1.5-3.5-1.5-7.8-1.5-9V370c0-0.1,0-0.1,0-0.1
	c0.2,5.8,22.2-81.3,22.2-81.3c0-0.3,0-0.6,0-0.8c0-0.1,0-0.2,0-0.2c-0.1-2.7-0.2-5.2-0.3-7.5c0-0.5,0-1.1,0-1.6c0-0.7,0-1.4,0-2.1
	c0.1-3.4,0.3-6.4,0.5-9c0.1-0.5,0.1-0.9,0.2-1.4c0-0.3,0.1-0.6,0.1-0.9c0.1-0.4,0.1-0.8,0.2-1.2c0.1-0.5,0.2-0.9,0.2-1.3
	c0.1-0.4,0.2-0.8,0.3-1.2c0-0.2,0.1-0.4,0.1-0.6s0.1-0.4,0.1-0.6s0.1-0.4,0.1-0.5c0-0.2,0.1-0.4,0.2-0.5c0.1-0.4,0.2-0.7,0.3-1
	c0-0.2,0.1-0.3,0.2-0.5c0.2-0.5,0.3-0.9,0.5-1.3c0-0.1,0.1-0.3,0.2-0.4c0.1-0.1,0.1-0.3,0.2-0.4c0.1-0.3,0.3-0.5,0.4-0.8
	c0.1-0.1,0.1-0.2,0.2-0.3c0.2-0.3,0.4-0.7,0.6-1c0.1-0.1,0.1-0.2,0.2-0.3c0.6-0.8,1.3-1.5,2-2c0.1-0.1,0.2-0.1,0.2-0.2
	c0.6-0.4,1.1-0.6,1.7-0.8c0.2-0.1,0.3-0.1,0.5-0.1c6.2-1.4,13.3,6.4,13.3,6.4c0.5,12.5,2.5,23.7,5.5,33.7
	C94.2,291.1,94.2,292,94.2,293z"/>
<path class="st0" d="M59.6,381.5c0.3-0.5,0.5-0.9,0.8-1.5l0,0c5.6-11.6,6.4-38.3,6.4-38.3"/>
<path class="st0" d="M78.7,332.6c0,0,4.7,25.4-1,31.6"/>
<path class="st0" d="M215.2,444c-10.6,14.5-24.2-5.3-24.2-5.3c0.1,2.3,0.2,4,0.2,4c0.7,12.5-19.4,8-19.4,8c-8.5-0.1-8.8-6.4-7-12.5
	l-1.4,0.1c-15.1,24.6-25.6,1.9-25.6,1.9c-9.3-9.3,30.9-27.5,30.9-27.5c1.1,0,1.3-15,1.3-28.2v-1c0-0.6,0-1.3,0-1.9
	c0-0.6,0-1.2,0-1.7s0-1,0-1.5c0-1,0-1.9,0-2.8c0-1.2,0-2.3,0-3.4c0-0.6,0-1.2,0-1.8c0-0.3,0-0.6,0-0.9c0-0.4,0-0.7,0-1.1
	c0-0.3,0-0.7,0-0.9c0-0.2,0-0.5,0-0.7c0-0.6,0-1.2,0-1.6c8.1,3,16,5.1,23.3,6.7l0.1,8.2v1l0.5,34.1
	C193.7,415.3,225.8,429.5,215.2,444z"/>
<path class="st0" d="M300.8,440.6c0,0-10.3,22.7-25.1-1.9l-1-0.1c1.3,5.7,0.5,11.2-7.2,11.2c0,0-19.7,4.6-19-8c0,0,0-1,0.1-2.6
	c-0.9,1.3-13.6,19.2-23.6,5.3c-10.4-14.5,21-28.7,21-28.7l0.6-43.1c8.2-2,15.8-4.4,22.9-7c0,1.4-0.8,47.4,1.1,47.4
	C270.6,413.1,309.9,431.3,300.8,440.6z"/>
<path class="st1" d="M211.2,202.8c0,2.4-1.3,4.4-2.9,4.4s-2.9-2-2.9-4.4s1.3-4.4,2.9-4.4c0.2,0,0.4,0,0.5,0.1
	c0.8,0.8,1.6,1.8,2.2,2.9C211.1,201.8,211.2,202.2,211.2,202.8z"/>
<path class="st0" d="M246.5,202.8c0,2.4-1.3,4.4-2.9,4.4s-2.9-2-2.9-4.4s1.3-4.4,2.9-4.4c0.4,0,0.7,0.1,1.1,0.3
	c0.4,0.4,0.8,0.9,1.2,1.4C246.2,200.8,246.5,201.7,246.5,202.8z"/>
<path class="st0" d="M362.7,332.8c-1.1,10.8-0.9,21.2,1.8,31"/>
<path class="st0" d="M375.8,342.7c0.1,15.4,2.9,28.9,10.8,38.5"/>
<path class="st1" d="M195,248.4L195,248.4c0,0-0.1,0-0.1,0.1l0,0l0,0l0,0c-0.1,0.1-0.2,0.1-0.4,0.2c-0.3,0.2-0.7,0.4-1.1,0.6
	c-0.3,0.1-0.6,0.3-0.9,0.5c-1.6,0.8-3.9,1.8-6.5,2.6c-0.3,0.1-0.6,0.2-0.9,0.3c-1.7,0.5-3.5,1-5.5,1.4c-0.3,0-0.5,0.1-0.8,0.1
	c-1,0.2-2.1,0.3-3.1,0.5c-0.7,0.1-1.4,0.1-2.1,0.2c-0.3,0-0.6,0-0.9,0c-4.8,0.2-9.8-0.5-14.5-2.9c-0.5-0.3-1-0.5-1.5-0.8
	c-12-6.9-21.7-24.8-20.3-66.1H135c-0.1,0.5-0.2,1-0.3,1.6c-0.1,0.4-0.1,0.8-0.2,1.3v0.1l0,0c-0.2,2-0.4,4.8-0.5,8.2v0.1
	C132.7,225.6,135,297.8,195,248.4C195.1,248.3,195,248.3,195,248.4z"/>
<path class="st0" d="M252.4,250.6L252.4,250.6c-0.8-0.6-1.6-1.3-2.3-2c1.5,0.9,58.5,34.7,55.7-60.9c0.4,0.2,0.8,0.3,1.1,0.5
	c0.2,0.1,0.4,0.2,0.5,0.5c0.2,1.9,0.4,5.2,0.6,9.4l0,0C309.2,226.4,306.9,295,252.4,250.6z"/>
</svg>
