<?xml version="1.0" encoding="utf-8"?>
<!-- Generator: Adobe Illustrator 22.1.0, SVG Export Plug-In . SVG Version: 6.00 Build 0)  -->
<svg version="1.1" xmlns="http://www.w3.org/2000/svg" xmlns:xlink="http://www.w3.org/1999/xlink" x="0px" y="0px"
	 viewBox="0 0 500 500" style="enable-background:new 0 0 500 500;" xml:space="preserve">
<style type="text/css">
	.st0{display:none;}
	.st1{display:inline;fill:#FFFFFF;}
	.st2{fill:#222220;}
</style>
<g id="BACKGROUND" class="st0">
	<rect class="st1" width="500" height="500"/>
</g>
<g id="OBJECTS">
	<path class="st2" d="M332.1,312.6c0-0.9-0.1-1.9-0.2-2.8C332,310.8,332.1,311.7,332.1,312.6z M423.7,249c-0.1,2.6-0.7,4.8-1.7,6.7
		c-0.1,0.1-0.1,0.1-0.1,0c-0.6-2.2-1.4-4.3-2.4-6.3c-1-2.2-2.1-4.2-3-5.8c-1.1-1.9-2.4-3.6-3.9-5.2c-0.5-0.5-0.7-0.4-0.6,0.3
		c0,0.3,0.1,0.7,0.2,1.3c0.9,3.6,1.6,7.4,2.3,11.5c0.3,1.6,0.4,3,0.5,4.2c0.3,5.3,0.2,10.5-0.1,15.8c-0.6,10.2-2.3,20.2-5.1,30
		c-0.9,3-1.6,6-2.1,9.1c-0.1,0.4-0.2,0.6-0.4,0.8c-0.2,0.2-0.3,0.1-0.3-0.1c0-0.6,0.1-1.2,0.1-1.8c0-0.5,0.1-1.1,0.2-1.8
		c0.6-4.1,0.5-8.3-0.4-12.4c-0.2-1.1-1.1-4-2.6-8.5c-1.8-5.3-4.4-10.1-7.8-14.4c-0.1-0.1-0.2-0.1-0.2,0.1c-0.1,6.5-1.1,12.9-3,19.1
		c-1.7,5.7-3.5,10.9-5.6,15.3c-1.9,4.1-3.8,8.4-5.7,12.8c-0.1,0.2-0.2,0.3-0.4,0.5c-0.2,0.2-0.3,0.1-0.2-0.3c0.7-3.9,1-7.8,1-11.7
		c0-0.2-0.1-0.3-0.2,0c-3.4,8.2-7.2,16.4-11.3,24.3c-0.4,0.8-1.5,2.9-3.2,6.1c-4.6,8.8-9,17.7-13,26.7c-0.2,0.6-0.5,1.1-0.8,1.6
		c-0.1,0.1-0.1,0.2-0.2,0.2c-0.2,0.1-0.3-0.1-0.2-0.4c0.2-1.9,0.3-3.8,0.3-5.7c0.2-7.1,0.5-14.2,0.9-21.3c0.1-1.1,0.1-2.3,0.1-3.8
		c0-1.3,0-2.5,0-3.8c0-0.2,0-0.4,0-0.5c-0.1-0.4-0.2-0.5-0.5-0.2c-0.1,0.1-0.2,0.2-0.2,0.4c-0.4,1-1.1,2.4-2.2,4.1
		c-2.2,3.8-3.7,7.8-4.6,12.1c0,0.1-0.1,0.2-0.3,0.3c-0.7,0.1-1.2,0-1.7-0.1c-0.1,0-0.2-0.1-0.2-0.2c-0.3-0.7-0.5-1.3-0.6-1.7
		c-0.7-3.7-1.3-7.3-2-10.9c-0.1-0.5-0.2-0.5-0.3,0c-1.3,4.1-2.8,8.1-4.7,12c-4.5,9.6-7.7,16.6-9.5,20.9c-2,4.7-3.8,9.4-5.4,14.2
		c-1.5,4.5-2.8,9-3.7,13.7c0,0.2-0.1,0.3-0.1,0.4c-0.3,0.5-0.4,0.3-0.4-0.4c0-0.2,0-0.4,0-0.5c-0.3-3.4-0.9-6.8-1.7-10.1
		c-0.6-2.5-1.9-4.7-3.6-6.5c-0.1-0.1-0.2-0.1-0.3,0c0,0,0,0,0,0.1c-4.9,9.1-9.9,18.1-15.1,27c-0.5,0.8-1.1,2.3-2,4.4
		c-0.1,0.2-0.2,0.3-0.3,0.3c-0.2,0.1-0.3,0-0.3-0.4c0-0.3,0-0.4,0-0.4c0-2,0-4-0.1-5.9c0-0.5-0.1-0.5-0.3-0.1
		c-2.9,6.2-5.8,12.4-8.6,18.6c-1.2,2.6-2.2,5.3-3.1,8.1c-0.1,0.2-0.1,0.3-0.2,0.4c-0.4,0.6-0.5,0.5-0.5-0.3c0-0.1,0-0.3,0.1-0.5
		c0.4-2.4,0.6-4.7,0.5-7.1c0-0.9,0.2-2.2,0.6-4c0-0.1,0-0.3,0-0.4c-0.1-0.4-0.2-0.5-0.4-0.1c-0.1,0.1-0.1,0.2-0.2,0.3
		c-5.3,6.7-10.6,13.5-15.8,20.3c-6.5,8.5-12.1,17.5-16.8,27.1c-0.1,0.3-0.3,0.3-0.4,0c-0.7-1.7-1.5-3.4-2.3-5
		c-0.1-0.2-1-1.8-2.6-4.9c-1.5-2.8-3.1-5.5-4.8-8.1c-2-3.1-4.1-6.1-6.2-9c-2.4-3.2-3.6-4.9-3.6-4.9c-2.5-3.5-5-6.9-7.6-10.3
		c-1.2-1.6-2.3-3.3-3.2-5.1c-0.2-0.4-0.3-0.3-0.4,0.1c-0.2,1.9-0.5,3.8-0.7,5.7c-0.1,1-0.2,2-0.2,2.9c0,1.4,0,2.3,0,2.9
		c0,0.5-0.1,0.7-0.4,0.6c-0.1,0-0.2-0.1-0.2-0.2c-0.3-1.8-0.9-3.6-1.7-5.2c-2.3-5.1-4.6-10.2-6.7-15.4c-0.8-1.9-1.7-3.8-2.7-5.6
		c-0.1-0.1-0.1-0.1-0.1,0c-0.1,1.4-0.1,2.6-0.1,3.6c0,0.8,0,1.6-0.2,2.2c0,0.1-0.1,0.1-0.1,0c-0.4-1.6-1.2-3.5-2.4-5.7
		c-3.8-6.9-7.5-13.9-11.1-20.9c-0.9-1.7-1.9-3.4-3.1-4.9c0-0.1-0.1-0.1-0.2,0c0,0,0,0,0,0c-0.8,0.9-1.6,2-2.1,3.4
		c-1.5,3.5-2.5,6.9-3.1,10.3c0,0.1-0.1,0.8-0.2,1.9c-0.1,0.6-0.2,1.3-0.4,1.9c-0.2,0.5-0.3,0.6-0.5,0.2c0-0.1-0.1-0.2-0.1-0.4
		c-0.1-1.1-0.2-1.9-0.4-2.6c-1.9-6.8-3.5-12.1-5-15.8c-1.9-4.8-4.6-10.5-8-17.2c-1.9-3.8-3.9-8.4-6.1-13.8c0,0-0.4-1.1-1.3-3.3
		c-1.1-2.9-2.4-5.6-3.8-8.2c-0.5-0.9-0.8-0.8-0.9,0.2c-0.3,3.6-0.9,7.2-1.7,10.7c0,0,0,0.2-0.1,0.5c-0.2,0.9-0.7,1.1-1.6,0.8
		c-0.1,0-0.2-0.1-0.3-0.2c-0.4-0.7-0.8-1.5-1.1-2.6c-1.5-4.7-3.4-9.1-5.9-13.1c-0.5-0.8-0.7-0.8-0.5,0.2c0.2,1.2,0.3,2.3,0.3,3.5
		c0,3.2,0.2,7.1,0.6,11.8c0.2,2.5,0.3,5.3,0.4,8.5c0,0,0.1,1.7,0.2,4.9c0.1,2,0,4-0.1,6c0,0.1,0,0.2-0.1,0.2c-0.1,0.1-0.2,0-0.3-0.1
		c-1.7-3.8-3.4-7.6-5.1-11.5c-1.5-3.4-4.1-8.2-7.7-14.4c-4.2-7.2-7.9-14.6-11.1-22.3c-1.5-3.7-3.2-7.1-5.1-10.4
		c-0.4-0.7-0.5-0.7-0.4,0.1c0.2,0.9,0.2,1.8,0.2,2.8c-0.3,2.9-0.1,5.8,0.4,8.6c0,0.2,0,0.3,0,0.4c-0.1,0.1-0.2,0.2-0.3,0.2
		c-0.1,0-0.2-0.1-0.2-0.2c-2.2-4.3-3.6-7.1-4.1-8.3c-3.5-8.3-6.2-16.3-8-23.9c-1.2-5.1-1.9-10.6-2-16.6c0-0.1,0-0.1-0.1,0
		c-1.7,2.3-2.8,4.1-3.5,5.5c-1.7,3.3-3.2,7.4-4.7,12.1c-1,3.1-1.6,5.7-1.8,7.8c-0.1,0.9-0.3,3.2-0.4,7c-0.1,1.2,0.2,3.5,0.7,7
		c0,0.2,0,0.3,0,0.4c-0.1,0.3-0.2,0.3-0.4,0.1c-0.1-0.1-0.1-0.2-0.2-0.3c-0.8-3-1.7-6-2.7-8.9c-2.3-6.6-3.9-13.4-4.8-20.3
		c-0.3-2.5-0.6-4.8-0.8-6.9c-0.4-4.4-0.5-9.1-0.3-14.2c0.1-2.3,0.2-4.4,0.4-6.2c0.1-1.3,0.5-3.4,1.1-6c0.7-3.1,1.3-6.2,2-9.4
		c0-0.2,0-0.3,0-0.4c-0.1-0.4-0.3-0.4-0.6,0c-0.7,0.9-1.5,1.8-2.2,2.7c-1.7,2.2-3,4.5-4,7c-1,2.6-2.1,5.2-3.4,7.8
		c-0.1,0.1-0.1,0.1-0.2,0c-0.4-0.9-0.7-1.7-1-2.6c-0.2-0.8-0.4-1.7-0.5-2.7c-0.3-3.3-0.2-6.7,0.2-10.3c0.4-3.5,1-6.7,1.6-9.7
		c0.3-1.4,0.8-3.7,1.5-6.8c2.4-10.8,6.3-20.7,11.7-29.7c1.8-3,4.2-6.3,7-9.8c1.2-1.5,2.8-3.2,4.7-5.1c2-2.1,4.1-4.2,6.2-6.3
		c1.6-1.7,3.2-3.5,4.8-5.5c0.1-0.2,0.2-0.4,0.1-0.6c-0.8-3.1-1.6-6.2-2.5-9.2c-1.3-4.6-2.6-9.2-3.8-13.9c-0.5-2-0.8-3.8-0.9-5.3
		c-0.1-2.2,0-4.3,0.3-6.5c0.3-2.2,0.8-4.3,1.7-6.4c0.6-1.4,1.2-2.7,1.8-4.1c0.3-0.6,0.6-1.1,0.9-1.6c0.1-0.1,0.1-0.2,0-0.3
		c-2.1-3.5-3.7-7.1-4.8-10.8c-1.8-6.5-3.1-13.6-3.8-21.4c-0.7-7.4-0.7-14.3,0.2-20.7c0.5-4.2,1.6-8.4,3.2-12.8
		c1-2.7,1.8-4.8,2.6-6.4c1.6-3.4,3.7-6.4,6.3-9.2c1.9-2,4-3.4,6.4-4.1c2-0.6,4.1-0.7,6.4-0.1c2.7,0.6,5.2,1.7,7.4,3.3
		c3.2,2.2,6.3,4.6,9.3,7.1c9.1,7.6,18.2,15.2,27.3,22.8c6,5,11.5,10.4,16.6,16.3c0.3,0.3,0.5,0.7,0.7,1c0.1,0.1,0.2,0.2,0.3,0.1
		c3.3-1,6.7-1.7,10-2.1c2.4-0.3,4.3-0.4,5.7-0.4c2,0,3.9,0.3,5.7,0.9c2,0.6,4,1.1,5.9,1.3c1.4,0.2,3.4,0.3,6,0.3
		c2.2,0,4.4-0.1,6.6-0.4c4.5-0.5,9-1.1,13.4-1.7c2.7-0.3,5.3-0.5,8-0.5c1.9,0,4.2,0.2,6.9,0.5c3.2,0.4,6.4,0.8,9.7,1.3
		c4,0.6,8.2,0.9,12.7,0.8c1.7,0,3.3-0.2,4.7-0.5c0.8-0.2,2.4-0.6,4.9-1.4c1.2-0.4,2.4-0.6,3.5-0.7c2.4-0.2,4.5-0.2,6.1,0.1
		c3.7,0.5,7.3,1.3,10.9,2.5c0.2,0.1,0.4,0,0.5-0.1c0.6-0.5,1.2-1.1,1.8-1.8c1-1.1,1.5-1.6,1.5-1.7c2.9-3.1,6.6-6.6,11-10.6
		c12-10.7,24.2-21.2,36.5-31.5c2.8-2.4,6-4,9.5-5.1c1.9-0.6,3.9-0.5,6.1,0c2.1,0.6,3.9,1.4,5.3,2.6c3.1,2.5,5.6,5.5,7.6,8.9
		c1.9,3.4,3.4,6.9,4.5,10.6c0.5,1.6,1,3.8,1.7,6.7c0.9,4.1,1.5,7.8,1.7,11.2c0.2,3,0.1,6.2-0.3,9.7c-0.2,1.7-0.5,3.9-0.9,6.9
		c-1.2,9.2-3.6,18.1-7.1,26.7c-0.3,0.7-0.8,1.5-1.5,2.3c-0.1,0.1-0.1,0.2,0,0.3c2,3.8,3.4,7.8,4.3,11.9c0.5,2.4,0.7,4.7,0.6,6.9
		c-0.1,2.5-0.5,5-1.2,7.7c-1.3,5.2-2.6,10.4-3.9,15.6c-0.5,2-1,3.4-1.3,4.1c-0.4,0.7-0.3,1.3,0.1,1.8c1.5,1.9,3.1,3.8,4.7,5.6
		c3.1,3.3,4.7,5,4.7,5.1c3.7,4.3,7,8.4,9.7,12.3c2,2.9,4,6.3,6,10.1c1.1,2.1,2,4.2,2.9,6.3c3.4,8.5,5.8,17.2,7.3,26.2
		c0.4,2.4,0.8,5.4,1.3,9.1C423.6,244.8,423.8,246.9,423.7,249z M376.8,78.9l-2.7,2c-0.9,0.7-1.9,1.4-3.2,2.2c1.3,0.8,2.9,1,4.3,0.7
		c1.5-0.3,2.8-0.9,4-1.8c1.1-0.9,2.1-2,2.7-3.1c0.7-1.2,1.2-2.5,1.3-4c-1.4,0.5-2.6,1.2-3.6,1.9C378.6,77.5,377.7,78.2,376.8,78.9z
		 M364.4,110.3c2.2-0.5,4.4-1.4,6.4-2.6c2-1.2,3.9-2.9,5.1-5.1c1.2-2.1,1.9-4.7,1.3-7c-1.1,2.1-2.4,3.7-3.8,5
		c-1.4,1.4-3,2.5-4.7,3.6c-1.7,1.1-3.6,2-5.5,3.1c-1.9,1.1-3.6,2.1-5.8,2.9C359.7,111.1,362.2,110.8,364.4,110.3z M358.5,179.1
		l-1.9-6.8c-0.6-2.3-1.4-4.6-2.3-6.9c-1-2.3-2.2-4.5-3.9-6.3c0.5,2.4,1,4.7,1.5,7.1c0.5,2.3,1,4.7,1.6,7c0.7,2.3,1.5,4.7,2.6,6.9
		c1.1,2.2,2.6,4.3,4.6,5.9C359.8,183.6,359.1,181.4,358.5,179.1z M364.2,141.3c1.6,2.2,3,4.5,4.3,6.9c0.5,0.9,1.7,3.4,3.6,7.5
		c0.8,1.8,1.5,3.7,2.1,5.7c0.1,0.3,0.2,0.3,0.3,0c0.6-1.1,1.3-2.2,2.1-3.4c0.3-0.4,0.6-0.7,1-0.9c0.3-0.2,0.8-0.2,1.3-0.1
		c0.5,0.1,0.9,0.2,1.4,0.4c0,0,0,0,0,0c0.1,0,0.2,0,0.2-0.1c0.1-0.5,0.2-1.1,0.3-1.5c0.1-0.4,0.2-0.9,0.4-1.5c0.6-2.1,0.9-4.3,1-6.7
		c0.1-3.8-0.1-7.4-0.7-10.8c-0.6-3.4-1.7-7.8-3.2-13c-0.2-0.6-0.4-1.2-0.6-1.7c-0.1-0.2-0.2-0.2-0.2,0c0,0.7,0,1.3,0.1,2
		c0.2,1.2,0.3,1.9,0.3,2c0.1,0.9,0.2,1.8,0.3,2.6c0.1,1.1,0.2,1.9,0.2,2.7c0.1,2.6-0.1,4.9-0.5,7.1c-0.6,3.2-1.3,6.4-1.9,9.8
		c0.2-2,0.2-4-0.3-6c-0.7-2.9-2.1-5.4-3.5-7.7c-1.4-2.3-2.9-4.4-4.1-6.7c-1.3-2.2-2.3-4.5-2.8-7.3c-1.2,2.6-1,5.8-0.1,8.5
		c0.8,2.8,2.2,5.3,3.6,7.5c1.4,2.3,2.8,4.4,3.9,6.7c0.8,1.6,1.4,3.4,2.1,5.2c-3.2-3-6.7-5.4-10.4-7.4C364.1,141,364,141,364.2,141.3
		z M355.5,74.9c-1.8,1.8-4.1,3.1-6.8,3.9c-0.3,0.1-0.5,0.4-0.5,0.7c0,1.3-0.2,2.6-0.7,3.9c-1.8,5.2-4.9,9.4-9.2,12.8
		c-1.1,0.8-2.4,1.6-3.9,2.3c-0.2,0.1-0.3,0.2-0.3,0.4c0,0,0,0,0,0c0,0,0,0,0,0c0,0,0,0,0,0c0,0,0,0,0.1,0c0,0,0,0,0,0c0,0,0,0,0,0
		l5.3-1c0.6-0.1,0.7,0.1,0.4,0.6c-0.8,1.4-1.5,2.9-2.2,4.5c0,0-0.4,1-1.1,3c-0.9,2.5-2.3,4.8-4,6.9c-0.9,1-1.5,1.7-1.8,2.1
		c-0.6,0.6-1.4,1.1-2.3,1.6c-0.4,0.2-0.5,0.4-0.2,0.5c0.1,0,0.2,0.1,0.4,0.1c3.1,0.2,6.1,0.9,8.9,2.1c2.2,0.9,3.5,2.5,4.1,4.6
		c0.2,0.8,0.2,1.8,0,2.8c-0.9,4-3.1,7.3-6.6,9.9c-0.2,0.2-0.3,0.4-0.1,0.7c1.5,2.4,3.5,4.2,6,5.3c2.3,1,4,1.6,5.2,1.7
		c1.9,0.2,4.9,0.2,9.2,0c0.1,0,0.1,0,0-0.1c-1.8-1.8-3.7-3.6-5.5-5.4c-0.9-0.9-2.1-1.7-3.7-2.3c-0.2-0.1-0.3-0.2-0.3-0.2
		c0-0.1,0.2-0.2,0.5-0.2c0.2,0,0.5,0,0.7,0c3.1,0.2,5.7-0.5,7.9-2.1c0.5-0.4,0.8-0.9,0.7-1.5c0-0.1-0.1-0.2-0.2-0.3
		c-1.3-1-2.9-1.8-4.6-2.4c0,0-0.1-0.1-0.1-0.1c0,0,0-0.1,0-0.1c0,0,0-0.1,0-0.1c0,0,0-0.1,0.1-0.1c1.7-1.8,2.9-3.9,3.6-6.4
		c0.2-0.8,0.3-1.4,0.4-1.5c0.1-0.5,0-1-0.1-1.6c-0.4-1.9-1.2-3.4-2.5-4.6c-1.1-1.1-2.5-2-4.3-2.6c-2-0.8-4.3-1-6.7-0.8
		c-0.5,0.1-0.6-0.1-0.2-0.4c0.8-0.7,1.8-1.2,3-1.7c5.2-2,10.2-4.5,14.8-7.6c2-1.3,3.8-2.9,5.3-4.7c1.1-1.2,1.9-2.6,2.5-4.1
		c0.5-1.4,0.7-2.7,0.5-4.1c-0.1-0.9-0.5-1.7-1-2.3c-0.6-0.7-1.3-1.1-2.2-1.4c-0.9-0.3-1.7-0.5-2.3-0.5c-2.6-0.1-4.2-0.1-4.7-0.2
		c-0.7-0.1-0.8-0.2-0.4-0.4c0.1,0,0.2-0.1,0.3-0.1c5.7-1.3,10.1-4.5,13.2-9.5c0.6-1,1.1-2,1.3-3c0.1-0.4,0-0.5-0.4-0.3
		c-1.6,0.8-3.2,1.5-4.9,2.1c-0.3,0.1-1,0.3-2,0.5c-0.8,0.2-1.4,0.4-2,0.7c-0.5,0.3-0.6,0.2-0.2-0.2c0,0.1-0.1,0.2-0.1,0.3
		c1.5-1.3,2.9-2.8,4.2-4.3c1.3-1.5,2.5-3.1,3.6-4.7c1.2-1.6,2.2-3.4,3-5.2c0.7-1.7,1.3-3.5,1.3-5.4c0.1-0.1,0.1-0.2,0.1-0.4
		c0.2-0.3,0.1-0.4-0.1-0.2c0,0,0,0,0,0c0,0,0,0,0,0.1c0,0,0,0,0,0c-1.6,1.5-3.2,3.2-4.6,5.1C365.1,65,360.5,70.1,355.5,74.9z
		 M339,177.8c0,2.8-0.1,5.7-0.2,8.7c1.3-2.6,2.2-5.5,2.7-8.4c0.5-2.9,0.6-5.9,0.4-8.9c-0.2-3-0.7-5.9-1.6-8.7
		c-0.9-2.8-2.1-5.6-3.7-8c0.4,2.9,0.9,5.7,1.3,8.6c0.4,2.8,0.7,5.6,0.8,8.4C338.9,172.1,339,175,339,177.8z M318.6,87.3
		c3.2-2.8,6.2-5.6,9.2-8.5l9.1-8.4l9.1-8.4c3.1-2.8,6.1-5.6,9.2-8.5c-3.8,1.9-7.3,4.1-10.7,6.5c-3.4,2.4-6.7,5.1-9.7,8
		c-3.1,2.8-6,5.9-8.7,9.1C323.3,80.3,320.8,83.7,318.6,87.3z M292.7,120.2c2.9-1.2,5.8-2,8.8-2.7c3-0.7,6-1.3,9-2
		c3-0.7,6.1-1.6,9-2.9c0.8-0.4,1.6-0.8,2.3-1.2c-1.3,0.9-2.8,1.8-4.3,2.5c-3.3,1.7-6.7,3.4-9.9,5.6c-3.2,2.2-6.2,4.7-8.6,7.9
		c-2.3,3.1-4,6.9-4.2,10.7c1.5-3.5,3.7-6.5,6.2-9.1c2.5-2.6,5.4-4.8,8.4-6.9c3-2.1,6.3-3.9,9.5-6.1c1.6-1.1,3.1-2.4,4.4-3.8
		c1-1.1,1.9-2.4,2.5-3.8c0.5-0.5,1-1,1.4-1.6c-0.3,0.2-0.7,0.3-1,0.5c0-0.1,0-0.1,0.1-0.2c-0.1,0.1-0.1,0.1-0.2,0.2
		c-2.4,1.2-4.9,2.1-7.4,2.8c-2.9,0.8-5.9,1.5-8.9,2.2c-3,0.7-6.1,1.5-9,2.7C297.8,116.3,294.9,117.9,292.7,120.2z M263.4,186.7
		c0,5.2,0.3,10.4,1.3,15.5c0,0.5,0.1,0.9,0.3,1.2c0,0.2,0.1,0.4,0.1,0.6c0-0.1,0-0.2,0-0.4c0,0,0.1,0.1,0.1,0.2
		c0.3,0.4,0.7,0.4,1.1,0.1c1.2-1,2.2-2.1,3-3.3c0.5-0.7,1-1.3,1.6-1.9c0.2-0.2,0.9-0.8,1.9-1.7c2.7-2.3,5.7-3.8,9.2-4.4
		c0.9-0.2,2.3-0.2,4.2-0.2c1.4,0,2.8,0,4.2-0.1c0.1,0,0.2,0,0.3-0.1c3.2-2,6.6-3.5,10.2-4.5c2.2-0.6,5.2-1.1,9-1.5
		c2.1-0.2,3.9-0.1,5.4,0.3c0.1,0,0.2,0,0.1-0.1c-0.5-1.6-1.3-2.8-2.3-3.7c-1.7-1.5-3.9-2.3-6.6-2.4c-2-0.1-4.5-0.1-7.4,0
		c0,0,0,0-0.1,0c0,0-0.1,0-0.1,0c0,0,0,0,0-0.1c0,0,0,0,0-0.1c0-0.2,0.1-0.3,0.3-0.4c0.6-0.3,1.1-0.7,1.6-1c0.3-0.2,0.8-0.6,1.5-1.2
		c0.9-0.8,1.8-1.3,2.6-1.5c1.1-0.2,1.2-0.5,0.4-0.9c-0.3-0.1-0.5-0.2-0.6-0.3c-0.8-0.4-1.4-0.7-1.9-0.7c-1.8-0.1-3.8,0.2-6.2,0.8
		c-5.5,1.5-10.4,4.1-14.9,7.6c-1.9,1.5-3.3,2.8-4.3,4c-0.1,0.1-0.1,0.1-0.1,0c-0.1-0.7,0-1.3,0.1-1.6c1.2-3,3-5.4,5.6-7.4
		c0.1-0.1,0.2-0.2,0.1-0.3c0-0.1-0.1-0.1-0.3,0c-1.7,0.6-3.4,1.4-5,2.3c-1.8,1-3.3,2-4.5,3.2c-1.7,1.7-3.1,3.7-4.2,6
		c-1.7,3.4-2.9,6.8-3.8,10.1c0.3-3.9,0.6-7.8,1.1-11.7c0.6-5.6,1.5-11.2,2.6-16.7c1.1-5.5,2.5-11,4-16.5c1.6-5.5,3.4-10.8,5.2-16.3
		c-3.4,4.7-6,9.9-8.2,15.3c-2.2,5.4-3.8,11-5,16.7C264.1,175,263.5,180.8,263.4,186.7z M290.7,210C290.7,210,290.8,210.1,290.7,210
		c0,0.1,0,0.1,0.1,0.2c0,0,0,0,0,0c0,0,0.1,0,0.1,0c2.9,0.5,5.7,0.7,8.4,0.6c1.5,0,2.8-0.2,4-0.6c1.3-0.4,2.6-0.9,3.7-1.6
		c1.3-0.8,2.2-1.8,2.8-3c0.6-1.3,0.7-2.6,0.3-3.8c-0.5-1.6-1.7-2.6-3.6-3c-3.5-0.7-6.7,0.1-9.3,2.5c-1.5,1.4-2.9,3.1-4.1,5.1
		c-0.4,0.8-0.8,1.3-1.1,1.7c-0.4,0.6-0.8,1.1-1.2,1.7C290.8,209.9,290.7,209.9,290.7,210C290.7,210,290.7,210,290.7,210z M277.5,202
		c-1.8,1.7-3.1,3.8-4.3,5.6c-1.2,1.9-2.3,3.6-3.7,5.1c-1.4,1.5-3,2.8-5.3,3.6c1.1,0.5,2.5,0.5,3.7,0.3c1.3-0.2,2.5-0.8,3.6-1.5
		c2.2-1.4,3.8-3.5,5.1-5.4c1.3-2,2.3-4,3.4-5.8c1.1-1.9,2.3-3.6,4.1-5.2C281.6,198.8,279.2,200.3,277.5,202z M236.8,251.9
		c-4.2,1.2-8.3,2.9-12,5.4c4.3-0.9,8.4-1.8,12.6-2.3c4.2-0.6,8.3-0.9,12.5-1c4.2-0.1,8.4,0.1,12.6,0.6c4.2,0.4,8.4,1.1,12.7,1.9
		c-3.7-2.4-7.9-4-12.1-5c-4.3-1.1-8.7-1.5-13.2-1.5C245.5,250,241,250.7,236.8,251.9z M236.2,216.4c-2.3-0.8-3.9-2.1-5.3-3.6
		c-1.4-1.5-2.5-3.3-3.7-5.1c-1.2-1.9-2.5-3.9-4.3-5.6c-1.7-1.7-4.1-3.2-6.6-3.3c1.8,1.6,3,3.4,4.1,5.2c1.1,1.8,2.1,3.8,3.4,5.8
		c1.3,2,2.9,4,5.1,5.4c1.1,0.7,2.3,1.2,3.6,1.5C233.7,216.9,235,216.9,236.2,216.4z M209.4,177.8c-2.8-1-5.6-2.1-8.4-3
		c-0.9-0.3-1.6-0.5-2.3-0.7c-0.7-0.2-1.4-0.2-2.1,0c-0.6,0.1-1.3,0.3-2.1,0.5c0,0,0,0,0,0c0,0,0,0,0,0c0,0,0,0,0,0c0,0,0,0,0,0.1
		c0,0,0,0,0,0c0,0,0,0,0,0c0.4,0.8,1.1,1.5,1.9,2c1.3,0.8,2.5,1.8,3.4,3c0.1,0.1,0,0.1-0.1,0.1c-0.5-0.2-1.2-0.3-1.9-0.3
		c-1.9,0-3.1,0-3.8,0.1c-3.3,0.2-6,1.7-8,4.3c-0.7,0.9-1.3,2-2,3.4c-0.1,0.1-0.1,0.2-0.1,0.3c0,0.2,0.2,0.3,0.4,0.1
		c0.1-0.1,0.2-0.1,0.3-0.1c2.2,0,4.7,0.1,7.4,0.3c2.4,0.2,4.6,0.6,6.8,1.3c1.4,0.4,2.7,0.9,4,1.6c1.3,0.7,2.5,1.5,3.6,2.3
		c0.8,0.6,1.6,1.1,2.6,1.6c0.3,0.1,0.6,0.1,0.8,0c0.7-0.3,1.5-0.6,2.3-0.7c1.9-0.2,3.7-0.3,5.6-0.3c1.6,0,3,0.2,4.3,0.7
		c2,0.7,3.8,1.7,5.4,2.9c1.9,1.5,4,3.5,6.3,6c0.5,0.5,1,0.7,1.4,0.4c0,0.1,0,0.2,0,0.3c0-0.1,0-0.2,0.1-0.3c0.1-0.1,0.3-0.2,0.4-0.3
		c0.1-0.1,0.1-0.2,0.1-0.3c0.1-0.7,0.1-1.4,0-2.1c0.8-4.7,1.1-9.5,1.1-14.2c-0.1-5.8-0.7-11.6-1.8-17.3c-1.1-5.7-2.8-11.3-5-16.7
		c-2.2-5.4-4.9-10.6-8.2-15.3c1.9,5.5,3.7,10.9,5.2,16.3c1.6,5.4,2.9,10.9,4,16.5c1.1,5.5,2,11.1,2.6,16.7c0.4,3,0.6,6,0.9,9
		c-0.3-1.2-0.6-2.1-0.8-2.9c-0.9-2.9-2.3-5.6-4.1-7.9c-1.2-1.5-2.7-2.9-4.6-4.1c-2.3-1.5-4.7-2.7-7.3-3.7c-0.1,0-0.1,0,0,0.1
		c1.9,1.8,3.4,3.9,4.5,6.3c0.3,0.8,0.6,1.6,0.8,2.4c0.1,0.4,0,0.5-0.3,0.2c-1.1-1.3-2.4-2.4-3.8-3.4c-1-0.7-2.5-1.6-4.4-2.6
		C212.9,179.2,211.2,178.4,209.4,177.8z M209.4,209.8c-0.8-1.1-1.7-2.1-2.5-3.1c-1.5-1.8-2.3-2.9-2.5-3.1c-3-3.2-6.7-4.8-11.3-4.6
		c-1.3,0.1-2.3,0.3-3,0.7c-1,0.5-1.7,1.3-2.2,2.4c-0.3,0.8-0.4,1.6-0.2,2.4c0.2,0.8,0.5,1.6,1.1,2.3c0.5,0.6,1.2,1.3,2.1,2.1
		c1,0.9,2.1,1.5,3.2,1.7c1.2,0.3,2.4,0.5,3.7,0.5c0.6,0,1.3,0,2-0.1c0.7-0.1,1.4-0.1,2-0.2c0.9-0.1,2-0.2,3-0.4
		c1.4-0.3,2.9-0.5,4.4-0.6C209.5,210,209.5,210,209.4,209.8z M181.7,110.2c-2.5-0.7-5-1.6-7.4-2.8c-0.1-0.1-0.1-0.1-0.2-0.2
		c0,0.1,0,0.1,0.1,0.2c-0.3-0.2-0.7-0.3-1-0.5c0.4,0.6,0.9,1.1,1.4,1.6c0.6,1.4,1.4,2.7,2.5,3.8c1.3,1.5,2.9,2.7,4.4,3.8
		c3.2,2.2,6.4,4,9.5,6.1c3,2.1,5.9,4.3,8.4,6.9c2.5,2.6,4.6,5.6,6.2,9.1c-0.2-3.9-1.9-7.6-4.2-10.7c-2.4-3.2-5.4-5.8-8.6-7.9
		c-3.2-2.2-6.7-3.9-9.9-5.6c-1.5-0.8-2.9-1.6-4.3-2.5c0.7,0.4,1.5,0.8,2.3,1.2c2.9,1.3,6,2.2,9,2.9c3,0.7,6,1.3,9,2
		c3,0.7,5.9,1.5,8.8,2.7c-2.2-2.3-5.1-3.9-8-5.1c-3-1.2-6-2-9-2.7C187.6,111.7,184.6,111.1,181.7,110.2z M145.2,53.6
		c3,2.9,6.1,5.7,9.2,8.5l9.1,8.4l9.1,8.4c3,2.8,6,5.7,9.2,8.5c-2.2-3.6-4.7-7-7.4-10.2c-2.7-3.2-5.6-6.2-8.7-9.1
		c-3.1-2.8-6.3-5.5-9.7-8C152.5,57.7,148.9,55.4,145.2,53.6z M127.4,60.2c0.8,1.9,1.8,3.6,2.9,5.2c1.1,1.6,2.3,3.2,3.5,4.7
		c1.2,1.4,2.4,2.8,3.8,4.1c0,0,0,0,0,0c0,0.1,0,0.1-0.1,0.1l-8.4-3.4c-0.1-0.1-0.2,0-0.1,0.1c0.4,0.9,0.8,1.7,1.2,2.6
		c0.5,1,1,1.8,1.4,2.5c2.5,3.5,5.8,5.9,10,7.2c0.4,0.1,1.6,0.3,3.4,0.5c0.1,0,0.1,0,0,0.1c-1.7,0.5-3.7,0.6-5.8,0.4
		c-2.3-0.2-3.9,0.4-5,1.9c-0.8,1.2-1.2,2.7-1.1,4.6c0.1,2,0.7,3.8,1.8,5.5c0.8,1.2,2.1,2.4,3.8,3.8c1.4,1.1,2.9,2.1,4.6,3
		c1.8,0.9,3.1,1.5,3.8,1.8c3.7,1.4,7.3,3.1,10.7,5.1c0.4,0.2,0.8,0.5,1.2,0.8c0.4,0.3,0.8,0.6,1.1,0.9c0.1,0.1,0.1,0.1,0,0.1
		c-0.7,0-1.4,0-2.1-0.1c-1-0.1-1.7-0.2-2.1-0.1c-1.4,0.1-2.7,0.5-4,1.1c-1.3,0.6-2.3,1.3-3.2,2.1c-1,0.9-1.7,2-2.3,3.2
		c-0.7,1.7-0.8,3.3-0.3,4.7c0.8,2.3,1.9,4.6,3.1,6.7c0,0,0,0.1,0,0.2c0,0,0,0.1,0,0.1c0,0,0,0.1-0.1,0.1c0,0-0.1,0.1-0.1,0.1
		c-1.3,0.2-2.6,0.9-3.8,2.1c-0.3,0.3-0.4,0.6-0.2,1c0.2,0.4,0.6,0.7,1.1,1c2.3,1.3,4.8,2,7.4,2c1.7,0,1.9,0.2,0.5,0.6
		c-0.8,0.3-1.5,0.7-2.2,1.4c-0.8,0.8-1.2,1.2-1.2,1.2c-1.4,1.4-2.6,2.9-3.5,4.7c0,0,0,0,0,0c0,0,0,0,0,0c0,0,0,0,0,0c0,0,0,0,0,0
		c0,0,0,0,0,0c0,0,0,0,0,0c0.4,0,1.1,0.1,2,0.2c7.3,0.9,13-1.5,17.3-7.2c0,0,0,0,0,0c0,0,0,0,0-0.1c0,0,0,0,0-0.1c0,0,0-0.1,0-0.1
		c0,0,0,0,0-0.1c0,0,0,0,0-0.1c0,0,0,0,0-0.1c0,0,0,0-0.1-0.1c0,0,0,0,0-0.1c0,0,0,0,0,0c-3.1-2.2-5.4-5-6.8-8.5
		c-0.5-1.3-0.8-2.4-0.7-3.4c0-1.3,0.5-2.4,1.2-3.4c0.8-1,2.2-1.8,4.1-2.4c2.5-0.9,5.2-1.2,7.9-1.1c0.2,0,0.3-0.1,0.1-0.2
		c-3-2.9-5.3-6.3-7-10c-1.4-3-2.8-6.2-4.2-9.5c-0.1-0.1,0-0.2,0.1-0.1c1.8,0.7,3.5,1.1,5.3,1.2c0.7,0.1,0.7-0.1,0.2-0.5
		c-1.1-0.7-2.1-1.5-3-2.4c-1-0.9-1.9-1.7-2.8-2.6c-4-4-6.6-8.9-7.8-14.5c0-0.1-0.1-0.2-0.2-0.2c-2.5-1.2-4.9-2.8-7-5
		c-3.9-4-7.1-7.5-9.8-10.7c-2.6-3-5.5-5.9-8.8-8.6c-0.6-0.5-0.9-0.6-0.9-0.3c0,0,0,0,0,0C126.1,56.3,126.6,58.3,127.4,60.2z
		 M161.4,177.8c0-2.8,0.1-5.6,0.2-8.5c0.2-2.8,0.5-5.6,0.8-8.4c0.4-2.8,0.8-5.6,1.3-8.6c-1.7,2.5-2.8,5.2-3.7,8
		c-0.9,2.8-1.4,5.8-1.6,8.7c-0.2,3,0,6,0.4,8.9c0.5,2.9,1.3,5.8,2.7,8.4C161.5,183.5,161.4,180.6,161.4,177.8z M125.4,149.6
		c0.9-2.3,1.5-4.5,2.5-6.4c1.1-2.3,2.5-4.4,3.9-6.7c1.4-2.3,2.8-4.8,3.6-7.5c0.8-2.7,1.1-5.9-0.1-8.5c-0.5,2.8-1.5,5.1-2.8,7.3
		c-1.2,2.2-2.7,4.3-4.1,6.7c-1.4,2.3-2.8,4.9-3.5,7.7c-0.4,1.7-0.5,3.3-0.4,4.9c0,0,0-0.1,0-0.1c-0.6-1.3-1-2.7-1.4-4.2
		c-0.8-3.5-1.1-7-1.1-10.6c0-1.9,0.4-5.2,1.2-10c0-0.1,0-0.2-0.1-0.1c-0.3,0.2-0.5,0.4-0.6,0.8c-1.7,6-3.1,12.1-4.1,18.3
		c-0.6,3.7-0.6,7.3,0.1,10.7c0.1,0.5,0.3,1.3,0.6,2.6c0.4,1.4,0.5,2.3,0.5,2.6c0,0.5,0.1,0.6,0.5,0.2c0.2-0.2,0.4-0.3,0.7-0.3
		c1.5,0.1,2.6,0.7,3.4,2c0.6,1,1.3,2,1.9,3c0.1,0.1,0.1,0.1,0.2,0c1.3-4,2.8-8,4.4-12c1.3-3.2,3.1-6,5.3-8.2
		c0.1-0.1,0.2-0.2,0.2-0.3c0-0.1,0-0.2-0.2-0.1c-3.1,1.9-5.7,3.8-7.9,5.5C127.2,147.6,126.3,148.5,125.4,149.6
		C125.4,149.6,125.4,149.6,125.4,149.6z M142.9,110.2c-2.2-0.8-4-1.8-5.8-2.9c-1.9-1.1-3.7-2-5.5-3.1c-1.7-1.1-3.3-2.2-4.7-3.6
		c-1.4-1.4-2.7-3-3.8-5c-0.6,2.3,0.1,4.9,1.3,7c1.2,2.1,3.1,3.8,5.1,5.1c2,1.2,4.2,2.1,6.4,2.6C138.1,110.8,140.7,111.1,142.9,110.2
		z M139.6,185.9c2-1.6,3.5-3.7,4.6-5.9c1.1-2.2,1.9-4.6,2.6-6.9c0.7-2.3,1.2-4.7,1.6-7c0.5-2.3,1-4.6,1.5-7.1
		c-1.7,1.8-2.9,4.1-3.9,6.3c-1,2.3-1.7,4.6-2.3,6.9l-1.9,6.8C141.2,181.4,140.5,183.6,139.6,185.9z M117,75c0.1,1.5,0.6,2.8,1.3,4
		c0.7,1.2,1.6,2.3,2.7,3.1c1.1,0.9,2.5,1.5,4,1.8c1.4,0.3,3,0.1,4.3-0.7c-1.3-0.8-2.2-1.5-3.2-2.2l-2.7-2c-0.9-0.7-1.8-1.4-2.9-2.1
		C119.6,76.2,118.5,75.4,117,75z M111.7,234.9c-2.6,1.9-4.9,4.3-6.9,6.9c-2,2.6-3.7,5.4-5.2,8.3c-0.5,1-0.9,2-1.3,3
		c0-0.1,0-0.1,0-0.2c1.1-5.3,2.2-10.4,4.2-15.2c1-2.4,2.1-4.8,3.3-7.1c1.3-2.3,2.7-4.5,4.2-6.7c2.9-4.1,6.4-7.9,10.2-11.4
		c0.2-0.1,0.4-0.3,0.6-0.4c0.5-0.3,0.4-0.5-0.1-0.4c-2.5,0.1-5,0.3-7.5,0.6c-0.6,0.1-1.2,0.2-1.6,0.3c-0.6,0.2-1.1,0.4-1.5,0.7
		c-0.5,0.4-0.6,0.3-0.3-0.3c1.1-1.7,2.3-3.3,3.6-4.8c1.7-2,3.8-3.6,6.2-4.6c1.2-0.5,2.4-1,3.6-1.4c0,0,0.1,0,0.1-0.1
		c0.1-0.1,0.1-0.3,0-0.4c-0.2-0.2-0.4-0.3-0.8-0.4c-2-0.8-4.1-1.4-6.3-1.9c-0.2,0-0.2-0.1-0.1-0.3c0.3-0.3,0.6-0.6,0.9-0.9
		c0.2-0.3,0.4-0.6,0.7-1.1c0.7-1.5,1.5-2.9,2.5-4.2c0.7-1,1.6-2.1,2.7-3.3c1-1,2-2.1,3-3.1c0.5-0.5,1-0.9,1.5-1.3
		c0.4-0.3,0.4-0.4,0-0.4c-0.1,0-0.2,0-0.3,0c-1.5,0.4-3,0.7-4.5,1c-0.7,0.1-1.5,0.3-2.2,0.6c-0.7,0.3-0.9,0.1-0.4-0.5
		c0.5-0.7,1-1.5,1.4-2.3c0.6-1,1.1-1.8,1.4-2.3c1.9-2.4,4-4.5,6.4-6.4c0.7-0.6,1.5-1,2.2-1.3c0.8-0.3,1.6-0.6,2.4-0.8
		c0.4-0.1,0.4-0.3,0-0.4c-0.2-0.1-0.5-0.1-0.7,0c-0.3,0.1-0.5,0.1-0.5,0.1c-4.3,0.6-8.2,2.1-11.7,4.5c-1.8,1.3-3.3,2.4-4.3,3.5
		c-3.3,3.4-6.3,7.4-9,12c0,0-0.4,0.8-1.3,2.3c-1.7,3-3.8,5.8-6.1,8.3c-0.4,0.5-0.8,1-1.2,1.5c-0.3,0.5-0.2,0.6,0.3,0.3
		c2.6-1.6,5.4-2,8.3-1.3c0,0,0,0,0,0c0.1,0,0.1,0.1,0.1,0.2c-0.9,2.3-2.1,5.2-3.6,8.6c-1.3,2.9-2.7,5.7-4.3,8.2
		c-1.1,1.7-2.3,3.2-3.6,4.5c-1.4,1.3-2.9,2.6-4.4,3.7c-0.5,0.3-0.5,0.6-0.1,0.7c0.1,0,0.2,0,0.3,0c2.1-0.6,4.2-1.2,6.3-1.8
		c1.6-0.5,3.2-1,4.8-1.6c1.3-0.5,2.4-1,3.2-1.4c-1.1,1.4-2,2.8-2.9,4.3c-1.4,2.4-2.7,4.9-3.7,7.4c-1,2.6-1.8,5.2-2.4,7.9
		c-0.6,2.7-0.9,5.4-1.3,8.1c-0.6,5.2-0.9,10.4-0.8,15.6c0,0.3,0,0.6,0,0.9c1.2-3,2.3-6,3.6-8.9c1.2-2.9,2.5-5.8,3.9-8.6
		c1.4-2.8,2.9-5.6,4.4-8.3C108.4,240.5,110,237.8,111.7,234.9z M136,309.3c-1.8-5.3-4.4-10.3-7.1-15.2c-2.6-4.8-5.3-9.6-7.4-14.6
		c-2.1-5-3.6-10.2-4-15.8c-0.1,0.5-0.1,0.9-0.2,1.4c-0.1-0.3-0.2-0.6-0.3-0.9c-0.5,2.7-1.2,5.1-1.9,7.6c-0.7,2.5-1.5,5-1.9,7.7
		c-0.4,2.7-0.5,5.5,0,8.2c0.5,2.7,1.5,5.3,3,7.6c-0.3-2.7-0.5-5.3-0.5-7.8c0-2.5,0.2-5,0.6-7.5c0.3-2.1,0.8-4.3,1-6.5
		c0.4,2.3,0.9,4.6,1.6,6.8c1.7,5.4,4.3,10.4,6.9,15.3c2.6,4.9,5.3,9.6,7.5,14.6c2.2,5,3.9,10.1,4.5,15.7
		C138.9,320.4,137.8,314.7,136,309.3z M158.2,282.2c2.4,1.8,4.6,3.9,6.6,6.2c0.1,0.2,0.2,0.2,0.3,0.1c0-0.1,0-0.2,0-0.3
		c-0.3-0.6-0.6-1.2-1-1.8c-3.5-5.3-6.3-10.9-8.5-16.8c-0.1-0.3-0.5-1.5-1.2-3.5c-0.4-1.2-0.8-2.3-1.3-3.5c-0.3-0.7-0.7-0.8-1.1-0.2
		c0,0-0.1,0.1-0.1,0.1c0,0-0.1,0-0.1,0c0,0-0.1,0-0.1,0c0,0-0.1,0-0.1,0c0,0-0.1,0-0.1,0c0,0-0.1,0-0.1,0c0,0-0.1,0-0.1,0
		c0,0-0.1-0.1-0.1-0.1c-2-2.5-3.6-5.4-4.7-8.5c-0.2-0.6-0.4-0.6-0.6,0c-0.8,2.3-1.9,4.6-3.2,6.8c-0.5,0.8-1.1,1.4-1.8,1.7
		c0,0,0,0-0.1,0c0,0,0,0-0.1,0c0,0,0,0,0,0c0,0,0,0,0-0.1c-0.6-3.4-1-6.9-1.3-10.4c-0.2-2.1-0.4-4.2-0.7-6.3c-0.6-4.2-1-7.7-1-10.6
		c0-4.2,0.8-8.3,2.6-12.1c0.1-0.2,0.1-0.3-0.1-0.1c-1.7,1.4-3.5,2.8-5.3,4c-2.5,1.6-4.4,3.3-5.8,5.2c-1.5,2-2.7,4.4-3.6,7.2
		c-0.5,1.5-1,3.3-1.4,5.4c-0.2,0.9-0.3,1.8-0.4,2.7c0,0,0-0.1,0-0.1c0-5,1.1-9.6,3-14.2c1.8-4.6,4.3-9.1,6.1-13.9
		c0.9-2.4,1.8-4.9,2.3-7.4c0.5-2.6,0.7-5.2,0.3-7.7c-0.4,2.5-1,5-1.9,7.3c-0.8,2.3-1.9,4.6-3.1,6.8c-2.3,4.5-4.9,8.9-6.8,13.7
		c-1,2.4-1.8,4.9-2.2,7.6c-0.5,2.6-0.5,5.3-0.3,7.9c0.5,5.2,2,10.2,3.9,14.9c-0.1-0.6-0.2-1.3-0.3-1.9c0.3,0.8,0.5,1.7,0.9,2.5
		c0,0.1,0.1,0.2,0.1,0.2c0.2,0.2,0.3,0.1,0.2-0.2c0-1.3,0-2.5,0.1-3.8c0.1-1.1,0.3-2.4,0.6-3.7c0.8-3,1.6-5.8,2.5-8.4
		c0-0.1,0.1-0.2,0.2-0.2c0,0,0,0,0.1,0c0,0,0,0,0.1,0c0,0,0,0,0,0.1c0,0,0,0,0,0.1c-0.1,1.6-0.1,2.5-0.1,2.8c0.1,2,0.5,5.1,1.2,9.3
		c0.4,2.2,0.7,4.2,0.9,6.1c0.3,2,0.5,4.1,0.8,6.1c0.4,2.8,1.1,5.5,2.2,8.1c1.8,4.5,4.8,8,8.9,10.5c0.4,0.2,0.5,0.1,0.3-0.3
		c-0.4-0.9-0.6-1.8-0.8-2.7c-0.2-1.8-0.5-3.5-0.8-5.3c-0.8-4.6-0.9-9.1-0.5-13.5c0-0.4,0.2-0.5,0.5-0.2
		C147.1,273.2,152.4,277.9,158.2,282.2z M183.4,345.1c-1-4.3-2.8-8.3-4.8-12.2c-3.6-7.1-7.6-13.7-9.2-21.4c-0.1-0.4-0.1-0.9-0.1-1.3
		c0-0.2-0.1-0.3-0.2-0.4c0-0.1,0-0.1,0-0.2c0,0.1,0,0.1,0,0.2c0,0-0.1,0-0.1,0c-0.1,0-0.2,0.1-0.2,0.2c-0.1,0.5-0.4,1.1-0.8,1.8
		c-1,1.6-2,3-3,4.2c0,0,0,0,0,0c-0.1,0-0.1,0-0.2,0c-0.9-1.4-1.4-2.8-1.6-4.2c-0.4-2.5-0.7-5-0.9-7.5c0,0,0-0.1,0-0.1
		c-0.1-0.1-0.2-0.1-0.3-0.1c-2.5,1.5-4.4,3.6-5.7,6.2c-0.1,0.2-0.2,0.2-0.4,0c-0.7-1.4-1.4-2.7-2.1-4c-1.1-2.3-1.7-4.7-1.7-7.2
		c0-0.3,0.1-1.1,0.2-2.3c0.1-0.8,0.1-1.5,0.2-2.3c0-0.1,0-0.1-0.1-0.2c0,0-0.1,0-0.1,0c0,0-0.1,0.1-0.1,0.1
		c-0.7,2.1-1.4,3.7-1.9,4.9c-1.5,3.6-2.2,7.4-2,11.3c0,0,0,0.3,0,0.9c0,0.4,0.1,1,0.2,1.6c0.2,1.2,0.4,2.4,0.7,3.6
		c0.5,2.6,1.2,5.2,2.3,7.7c0.4,0.9,1.4,2.9,3.2,6.2c0.1,0.1,0.1,0.1,0.1,0c0.1-1,0.3-2,0.4-3c0.3-1.6,0.9-2.8,2.1-3.6
		c1-0.7,2.3-1,3.7-0.9c1.6,0.2,2.9,0.9,4,2.2c2.1,2.7,3.8,5.9,4.9,9.6c0.1,0.2,0.2,0.7,0.4,1.6c0.1,0.6,0.3,1.1,0.5,1.6
		c0,0,0,0,0,0.1c0.1,0.1,0.1,0.1,0.2,0c0,0,0-0.1,0-0.2c-0.1-1.1-0.2-2.4-0.3-4.1c-0.1-4.3-0.2-8.6-0.4-12.9c0.1,0.5,0.3,1,0.5,1.6
		c1.4,4.2,3.3,8.1,5.2,11.9c1.9,3.8,3.8,7.5,5.2,11.4c1.4,3.9,2.4,8,2.3,12.3C184.7,354,184.4,349.4,183.4,345.1z M203.3,389.1
		c-0.7-3.6-1.5-7.1-2.3-10.7c-0.8-3.5-1.5-7-2.2-10.5c-0.7-3.5-1.3-7-2-10.6c-0.6-3.5-1.2-7.1-2-10.7c-0.6,3.6-0.7,7.3-0.5,11
		c0.2,3.7,0.6,7.3,1.3,10.9c0.7,3.6,1.7,7.2,2.9,10.6C199.9,382.5,201.4,385.9,203.3,389.1z M227.4,373.1
		C227.5,373.1,227.5,373.1,227.4,373.1c-3.1-5.7-6.7-12.7-10.9-21c-0.9-1.7-2.1-3.4-3.6-4.9c-1-1-1.6-1.6-1.6-1.6
		c-0.8-0.8-1.6-1.7-2.4-2.5c-0.3-0.4-0.4-0.3-0.3,0.2c0.1,0.4,0.2,0.7,0.2,1.2c0.1,2.7,0.6,5.3,1.2,7.8c0.4,1.6,1.1,3.3,2,5
		c0.8,1.6,1.8,3.1,2.7,4.7c1.2,1.8,2.7,3.5,4.4,5C222,369.1,224.7,371.2,227.4,373.1z M273.5,386.2c-0.2-1.4-0.4-2.3-0.5-2.8
		c-0.1-0.9-0.3-1.8-0.4-2.8c0,0,0,0,0,0c0,0,0,0,0,0c0,0,0,0,0,0c0,0,0,0-0.1,0c0,0,0,0,0,0c0,0,0,0,0,0c-5,2.1-8.3,3.3-9.9,3.8
		c-3.9,1.2-8,1.9-12.1,2c-0.6,0-1.2,0-2-0.1c-0.7-0.1-1.4-0.2-2-0.2c-1.3-0.1-2.3-0.2-3-0.4c-5.4-1.1-10.5-2.9-15.4-5.4
		c0,0-0.1,0-0.1,0c0,0,0,0-0.1,0c0,0-0.1,0-0.1,0c0,0-0.1,0-0.1,0.1c0,0,0,0,0,0c0,0,0,0.1,0,0.1c-0.2,2.3-0.5,4.6-0.9,6.7
		c-0.1,0.5-0.1,0.9-0.1,1.3c0,0.4,0,0.9,0,1.3c0,0,0,0,0,0c0,0,0,0.1,0,0.1c0,0,0,0,0,0.1c0,0,0,0,0.1,0c0,0,0,0,0.1,0h0
		c0.4,0,0.7-0.1,1-0.3c1.3-1,2.7-1.3,4.2-0.9c2,0.6,3.9,1.8,5.7,3.6c1.5,1.6,3.2,3,5.1,4.3c0.7,0.4,1.3,0.7,2,0.8
		c0.8,0.1,1.4-0.2,1.9-0.8c1.1-1.4,1.9-3,2.4-4.7c0.2-0.6,0.3-0.6,0.5,0c0.3,0.7,0.6,1.5,1,2.3c0.4,0.9,0.9,1.6,1.4,2.1
		c1.2,1.1,2.5,1.5,4.1,1.1c0.9-0.2,2-0.9,3.3-2c1.6-1.3,3.2-2.8,4.7-4.2c1.9-1.9,4.2-2.8,6.7-2.6c1,0.1,1.8,0.6,2.3,1.6
		c0.1,0.2,0.2,0.3,0.2,0.3c0.2,0.2,0.4,0.1,0.5-0.3C273.8,389.1,273.8,387.8,273.5,386.2z M265.7,357.2c-0.1,0.9-0.4,2.1-1,3.5
		c0,0.1-0.1,0.2-0.2,0.2c-0.3,0-0.5-0.1-0.6-0.4c-0.4-1.3-1.1-2.4-2.1-3.4c-0.3-0.3-0.4-0.2-0.4,0.2c0,1.6-0.5,3-1.4,4.4
		c0,0-0.1,0.1-0.1,0.1c0,0,0,0-0.1,0c0,0,0,0-0.1,0c0,0-0.1,0-0.1,0c0,0-0.1,0-0.1,0c0,0,0,0-0.1,0c0,0-0.1,0-0.1,0
		c0,0-0.1,0-0.1-0.1l-1.9-2c0,0-0.1-0.1-0.1-0.1c0,0,0,0,0,0c0,0-0.1,0-0.1,0s-0.1,0-0.1,0c0,0,0,0,0,0c0,0-0.1,0.1-0.1,0.1
		c-0.2,0.5-0.3,0.9-0.6,1.3c-0.3,0.5-0.5,0.8-0.8,1c-0.3,0.2-0.7,0.2-1,0.1c-0.3-0.1-0.5-0.3-0.7-0.6c-0.7-0.9-1.3-2-1.8-3.1
		c-0.1-0.3-0.2-0.3-0.3,0c-0.2,0.5-0.3,1.2-0.5,1.9c-0.2,0.8-0.6,1.3-1.2,1.6c-0.3,0.1-0.6,0.1-0.9,0c-1.4-0.7-2.3-1.7-2.7-3.1
		c-0.2-0.8-0.4-0.8-0.5,0c-0.1,1-0.5,1.9-1.2,2.6c-0.5,0.5-1,0.5-1.5,0c-1-1.3-1.9-2.7-2.7-4.1c-0.1-0.3-0.3-0.3-0.4,0
		c-0.3,0.6-0.6,1.2-0.7,1.9c-0.1,0.9-0.4,1.7-0.8,2.4c0,0,0,0-0.1,0c0,0,0,0,0,0c0,0,0,0,0,0c0,0,0,0-0.1,0
		c-0.9-1.1-1.6-2.3-1.9-3.6c-0.3-1.5-0.6-3.5-1-5.7c0-0.1-0.1-0.2-0.1-0.3c-0.2-0.1-0.3-0.1-0.5,0.2c-0.8,1.8-1.6,3.7-2.4,5.5
		c-1.1,2.4-1.5,5.1-1.4,8c0.1,1.2,0.3,2.3,0.8,3.3c0.9,2,2.2,3.8,3.8,5.5c0.6,0.6,1.2,0.9,2,1.1c0.3,0.1,0.4,0,0.3-0.2
		c0,0-0.1-0.1-0.2-0.1c-0.4-0.2-0.6-0.6-0.9-1.1c-0.5-1.2-0.7-2.3-0.6-3.3c0.2-1.8,0.8-3.5,1.9-5.1c0,0,0.1-0.1,0.1-0.1
		c0,0,0.1,0,0.1,0c0,0,0.1,0,0.1,0c0,0,0.1,0,0.1,0c0,0,0.1,0,0.1,0c0,0,0.1,0,0.1,0c0,0,0.1,0,0.1,0c0,0,0.1,0.1,0.1,0.1
		c0.4,0.5,0.8,1,1.1,1.5c0.6,1,1.6,1.7,2.9,2.1c0,0,0,0,0,0c0,0,0,0,0.1,0c0,0,0.1,0,0.1,0c0,0,0,0,0.1,0c0,0,0,0,0.1,0
		c0,0,0,0,0.1,0c0,0,0,0,0.1-0.1c0,0,0,0,0-0.1c0,0,0,0,0-0.1c0,0,0,0,0,0c0.3-1.4,0.9-2.6,1.7-3.8c0.5-0.6,1-0.7,1.6-0.3
		c0.4,0.3,0.9,0.8,1.4,1.6c0.5,0.8,1.2,1.4,1.9,1.8c0.4,0.2,0.7,0.1,0.9-0.3c0.4-0.8,0.9-1.6,1.4-2.3c0.6-1,1.3-1.3,2.1-0.9
		c0.4,0.2,0.8,0.6,1.3,1.4c0.8,1.1,1.3,1.8,1.5,2c0.6,0.5,1.1,0.7,1.6,0.4c0.3-0.2,0.6-0.5,0.9-1.1c0.4-0.7,0.7-1.3,1.1-2
		c0.1-0.1,0.2-0.1,0.3-0.1c1,0.2,1.7,0.6,2.2,1.5c0.6,1,1,2,1.1,3.2c0.1,1.2,0.2,2.1,0.2,2.8c0,1-0.3,1.9-0.9,2.7
		c-0.1,0.1,0,0.1,0.1,0.1c1.2-0.6,2.4-1.7,3.5-3.1c3-4.1,3.8-8.3,2.5-12.8c-0.3-1.1-0.9-2.4-1.6-4.1c-0.6-1.3-1.3-2.6-2.1-3.9
		c-0.4-0.6-0.6-0.6-0.6,0.2C265.8,354,265.8,355.7,265.7,357.2z M291.8,343.2c0-0.2-0.1-0.2-0.2-0.1c-0.4,0.6-0.9,1.1-1.5,1.5
		c-1.6,1.2-2.9,2.7-3.9,4.4c-1.6,2.7-3,5.5-4.4,8.4c-1.7,3.6-2.5,5.4-2.5,5.4c-1.5,3.1-3.1,6.1-4.7,9.2c-0.2,0.4-0.1,0.5,0.3,0.2
		c1.8-1,3.4-2.2,5-3.6c1.6-1.3,3-2.8,4.3-4.3c3.5-4.1,5.9-8.9,7.1-14.3C291.8,348,291.9,345.7,291.8,343.2z M305.5,346.6
		c-0.7,3.6-1.3,7.2-2,10.7c-0.6,3.5-1.3,7.1-2,10.6c-0.7,3.5-1.4,7-2.2,10.5c-0.8,3.5-1.6,7-2.3,10.7c1.9-3.1,3.4-6.5,4.7-10
		c1.3-3.5,2.2-7,2.9-10.6c0.7-3.6,1.2-7.3,1.3-10.9C306.2,353.9,306.1,350.2,305.5,346.6z M313.6,295.1c2.6-4.8,4.4-10.1,5.2-15.5
		c0.8-5.4,0.6-11-0.5-16.4c-1.1-5.3-3.2-10.5-6.3-14.9c1.8,5,3.1,10.2,3.8,15.3c0.6,5.2,0.6,10.4-0.1,15.5c-0.1,0.8-0.3,1.7-0.4,2.5
		c0-1-0.1-1.9-0.2-2.9c-0.6-5-2.5-9.5-5.9-13.3c-0.8-0.9-1.7-1.9-2.7-2.8c-1.1-1.1-2.2-1.9-3.1-2.4c-1.8-1-3.5-2-5.3-3
		c-1.4-0.8-2.4-1.9-2.9-3.3c-0.5-1.2-0.6-2.5-0.5-4.2c0.3-2.8,1.4-5.2,3.3-7.3c1-1.1,2.1-2,3.2-2.8c-0.1,0.1-0.2,0.3-0.3,0.4
		c0.7-0.6,1.5-1,2.3-1.5c0.3-0.1,0.5-0.3,0.8-0.4c3-1.2,5.6-2.3,7.8-3.5c1.8-0.6,3.6-1.2,5.4-1.7c2.9-0.9,5.8-1.8,8.6-3.1
		c2.8-1.2,5.6-2.8,8.1-4.6c5.1-3.6,9.5-8.4,12.2-14.1c1.6-3.5,2.7-7.2,2.9-11c0.1,1.8,0.3,3.6,0.4,5.4c0.2,4,0.3,7.9,0.2,11.8
		c-0.1,3.9-0.3,7.9-0.6,11.8c-0.3,4-0.8,7.9-1.2,12c2-3.6,3.4-7.5,4.3-11.5c0.9-4,1.4-8.1,1.5-12.2c0.1-4.1-0.3-8.2-1.1-12.3
		c-0.8-4-2.1-8-4-11.6c0,0,0,0,0,0c0-0.2-0.1-0.3-0.1-0.5c-0.2,6.1-2.1,11.7-5.1,16.6c-3,4.9-7,9-11.7,12.3
		c-2.3,1.6-4.8,3.1-7.4,4.4c-1.2,0.6-2.5,1.2-3.8,1.7c1.1-1.3,2.1-2.7,3-4.3c1.8-3.2,3.1-6.6,3.7-10.3c0.3-1.6,0.4-3,0.5-4.4
		c0.1-1.3,0.1-2.8,0-4.4c-0.1-2.5-0.3-5.1-0.6-7.8c-0.1-0.5-0.3-0.6-0.7-0.2c-0.6,0.5-1,1.1-1.4,1.6c-2.5,3.8-5,7.6-7.5,11.5
		c-0.5,0.7-1,1.4-1.5,2.1c-3,2.5-6.3,4.5-9.7,6c-4.3,1.8-8.8,3-13.4,3.6c-4.6,0.6-9.5,0.8-14.4,1.8c-2.4,0.5-4.9,1.2-7.2,2.2
		c-2.3,1-4.4,2.4-6.1,4.2c4.4-2.2,9-3,13.7-3.3c4.7-0.4,9.5-0.3,14.5-0.9c0.7-0.1,1.5-0.2,2.2-0.4c-2.9,1.1-5.4,2.2-7.5,3.4
		c-1.8,1-3.2,2.4-4.2,4.2c-0.7,1.3-1.2,2.5-1.4,3.7c-0.2,1.3-0.1,2.7,0.3,4c0.6,2,1.5,3.9,2.6,5.7c0.3,0.4,0.9,1.6,2.1,3.7
		c0.5,0.9,0.7,1.7,0.7,2.6c0,1.1,0,1.6,0,1.7c0.5,4.6,1.4,8.9,2.8,12.9c1,3,1.8,5.9,2.3,8.7c0.1,0.7,0.2,1.6,0.3,2.8
		c0.1,1.2,0.2,2.2,0.3,2.8c0.1,0.6,0,0.8-0.3,0.5c-0.1-0.1-0.1-0.2-0.2-0.3c-2.4-5-5.9-8.7-10.6-11.1c-1.9-1-3.5-1.6-5.1-2
		c-1.8-0.4-3.6-0.6-5.5-0.4c-1.9,0.2-3.7,0.4-5.6,0.6c-0.4,0-0.4,0.1,0,0.2c2.8,0.6,5.1,1.9,7.1,3.8c0,0,0.4,0.4,1.1,1
		c0.5,0.4,0.9,0.9,1.2,1.5c0.1,0.1,0,0.1-0.1,0.1c-1.2-0.1-2.3-0.1-3.5,0c-1.8,0.2-2.7,0.2-2.8,0.2c-3.6,0.2-7.2,0.7-10.7,1.5
		c-3.7,0.8-5.9,1.2-6.4,1.3c-2.4,0.2-4.7,0.1-6.9-0.5c-3.5-0.9-6.6-1.5-9.3-1.9c-2.7-0.4-6.1-0.6-10.3-0.9c0,0-0.3,0-0.9-0.1
		c-0.6-0.1-1.2,0-1.8,0.1c-0.3,0-0.3-0.1-0.2-0.3c0.2-0.4,0.4-0.7,0.6-1c0.2-0.3,0.5-0.6,0.9-0.8c1.8-1.3,3.8-2.3,5.9-3
		c1.1-0.3,2.1-0.5,3.1-0.4c0.5,0,0.6-0.1,0.1-0.4c-0.8-0.5-1.7-0.8-2.6-0.9c-1-0.1-1.5-0.2-1.5-0.2c-4.9-0.8-9.4,0.1-13.3,2.8
		c-3.1,2.1-5.8,5.1-7.8,8.9c-0.2,0.4-0.5,1-0.8,1.9c0,0.1-0.1,0.2-0.2,0.3c-0.2,0.1-0.4,0.1-0.6,0.1c-0.1,0-0.1-0.1-0.1-0.2
		c0.1-0.6,0.2-1.2,0.3-1.7c0.5-5,1.4-9.9,2.8-14.7c1.3-4.4,2-8.9,2.3-13.5c0-0.5,0.1-1,0.2-1.4c0.1-0.5,0.3-0.9,0.5-1.3
		c0.7-1.5,1.7-3.3,2.9-5.5c0.8-1.5,1.3-3.1,1.4-4.9c0.1-1.8-0.1-3.4-0.7-4.9c-0.7-2-2-3.6-3.9-4.8c-2.3-1.5-4.7-2.6-7.2-3.3
		c4.9,0.6,9.7,0.6,14.3,0.9c4.7,0.4,9.3,1.1,13.7,3.3c-1.7-1.8-3.8-3.2-6.1-4.2c-2.3-1-4.7-1.7-7.2-2.2c-4.9-1-9.8-1.2-14.4-1.8
		c-4.6-0.6-9.1-1.8-13.4-3.6c-4.1-1.7-7.8-4.1-11.2-7.3c0,0,0,0,0-0.1c-1.9-2.9-4.4-6.9-7.3-12.3c-0.4-0.7-0.8-1.3-1.3-1.9
		c-0.1-0.1-0.2-0.1-0.2,0.1c-0.2,1.9-0.5,3.7-0.7,5.6c-0.2,1.8-0.4,3.6-0.5,5.2c-0.1,2.8-0.2,4.6-0.1,5.3c0.1,2.5,0.3,4.2,0.4,4.9
		c0.2,1,0.6,2.4,1.3,4.2c0.6,1.7,1.2,3.1,1.7,4.1c0.7,1.4,1.6,2.7,2.6,3.9c-0.1,0-0.2-0.1-0.3-0.1c-2.7-1.3-5.2-2.7-7.6-4.4
		c-4.8-3.3-9-7.4-12.1-12.4c-3-5-5-10.7-5.2-16.9c0,0.2-0.1,0.3-0.1,0.5c0,0,0,0,0,0c-1.9,3.7-3.1,7.6-4,11.6
		c-0.8,4-1.2,8.2-1.1,12.3c0.1,4.1,0.5,8.2,1.5,12.2c1,4,2.3,7.9,4.3,11.5c-0.4-4.1-0.9-8-1.2-12c-0.3-3.9-0.5-7.9-0.6-11.8
		c-0.1-3.9,0-7.9,0.2-11.8c0.1-1.8,0.2-3.6,0.4-5.4c0.2,3.9,1.3,7.8,3,11.3c2.8,5.8,7.3,10.6,12.6,14.2c2.6,1.8,5.4,3.3,8.3,4.5
		c2.9,1.2,5.9,2.1,8.9,2.9c1.9,0.5,3.7,1,5.6,1.6c0.9,0.3,1.9,0.6,2.8,0.9c0.1,0,0.2,0.1,0.3,0.1c2.8,1,5.5,2.2,8,4
		c0.5,0.5,1,1,1.4,1.6c1,1.5,1.7,3.1,2.2,4.9c0.4,1.7,0.4,3.1,0.1,4.4c-0.4,1.5-1.2,2.8-2.5,3.9c-1.6,1.3-3,2.5-4.4,3.6
		c-2.3,1.8-3.8,3-4.4,3.6c-2.3,2.2-4,4.8-5.2,7.5c-1.6,3.7-2.3,7.7-2.1,11.9c0,0.7,0.1,1.5,0.2,2.2c-0.6-2.3-1.1-4.7-1.5-7
		c-0.7-5.1-0.8-10.3-0.1-15.5c0.6-5.2,1.9-10.3,3.8-15.3c-3,4.4-5.1,9.6-6.3,14.9c-1.1,5.3-1.3,10.9-0.5,16.4
		c0.8,5.4,2.6,10.7,5.2,15.5c2.2,4,5,7.7,8.3,10.8c0.1,1.1,0.1,2.2,0.2,3.4c0.1,1.7,0.2,3,0.4,3.9c0.5,2.9,1.6,5.7,3.2,8.6
		c1.5,2.8,3.5,5.3,5.8,7.6c2.8,2.8,5.9,5.3,9.3,7.3c1.7,1,3.5,1.9,5.2,2.5c1.7,0.6,3.6,1.2,5.6,1.6c2.6,0.5,4.7,0.9,6.4,1.2
		c0,0,0,0,0,0c0,0,0,0,0,0c0,0,0,0,0,0c0,0,0,0,0,0c0,0,0,0,0,0c0,0,0,0,0,0c-0.1-0.3-0.2-0.5-0.5-0.7c-2.4-1.2-4.3-2.8-5.7-4.9
		c-3.8-5.4-6.1-11.4-6.9-17.9c-0.1-0.4-0.1-0.8-0.2-1.3c-0.1-0.5-0.2-1-0.2-1.3c-0.1-0.7,0.1-0.7,0.6-0.2c3.2,3.5,6.9,5.5,11.1,5.9
		c1,0.1,1.9,0.2,3,0.4c0.4,0.1,0.5,0,0.2-0.3c-1-0.8-1.8-1.8-2.6-2.9c-1.5-2.2-2.8-4.4-4.1-6.7c-0.6-1-1.1-2.4-1.7-4.3
		c-0.3-1.1-0.5-2.2-0.5-3.1c0-0.6,0.1-1.6,0.3-3.1c0.2-1.8,0.5-3.5,1-5.3c0.5-1.9,0.9-3.2,1.1-3.7c0.6-1.3,1.5-2.3,2.7-3
		c1.3-0.7,2.6-1.3,4.1-1.8c3.4-1,6.8-1.7,10.3-1.8c0.3,0,1,0,2,0.1c0.7,0,1.3,0,2-0.1c0.1,0,0.2,0,0.2,0c1.5,0.2,2.7,0.3,3.7,0.2
		c0.9-0.1,1.3-0.1,1.4-0.1c4-0.2,7.9,0.1,11.8,0.9c2.9,0.6,5.3,1.4,7.2,2.5c1.4,0.8,2.4,1.7,2.9,2.6c1.4,2.3,2.3,4.9,2.8,7.9
		c0.3,1.7,0.5,3,0.5,4c0.1,1.4-0.1,2.7-0.4,4c-0.4,1.3-1.1,3.2-2.3,5.4c-1.6,3.2-3.8,6.1-6.4,8.6c-0.1,0.1-0.1,0.1,0,0.1
		c2.2-0.7,4-1,5.3-1c1.3,0,2.5-0.3,3.6-1c2.5-1.6,4.9-3.5,7.1-5.5c0.2-0.2,0.3-0.2,0.2,0.1c-1,4.1-2.2,8.1-3.5,12.1
		c-0.7,2.2-1.4,3.9-2.1,5.2c-0.9,1.7-1.9,3.3-3,4.8c-0.9,1.3-1.6,2.1-2,2.5c-0.8,0.8-1.6,1.4-2.6,1.9c-0.2,0.1-0.3,0.2-0.2,0.3
		c0.1,0.1,0.2,0.1,0.3,0.1c4.6-0.6,9-2.1,13.2-4.7c5.3-3.2,9.8-7,13.6-11.4c4.2-4.9,6.3-10.6,6.3-17.1c0,0,0-0.2,0-0.5
		c0-0.5,0.1-1.1,0.5-1.6c0,0,0,0,0,0C308.4,303.1,311.4,299.3,313.6,295.1z M354.1,305.1c-0.2-1.6-0.6-3.3-1.3-5.1
		c-0.7-2-1.6-3.9-2.7-5.7c-0.1-0.2-0.2-0.3-0.3-0.3c-0.2,0.1-0.2,0.3-0.2,0.5c0.8,2.4,0.9,4.6,0.5,6.6c-0.6,3.1-2,6.3-4.2,9.5
		c-0.1,0.1-0.1,0.1-0.2,0c-1.1-3.1-3.2-5.4-6.5-6.8c0,0,0,0,0,0c-0.1,0-0.1,0.1-0.1,0.1c-0.1,3.2-0.3,6.3-0.7,9.3c0,0,0,0.3,0,0.8
		c0,0.4-0.1,0.9-0.4,1.3c-0.2,0.4-0.5,0.5-0.9,0.2c-1.5-1.1-2.8-2.6-3.8-4.3c-0.5-0.8-1-1.4-1.6-1.9c-0.1-0.1-0.1-0.1-0.1,0.1
		c0,0.1,0,0.2,0,0.3c-1.3,8.6-5.7,15.7-9.6,23.3c-1.9,3.8-3.7,7.9-4.8,12.2c-1,4.3-1.3,8.9,0.1,13c-0.1-4.3,0.9-8.4,2.3-12.3
		c1.4-3.9,3.3-7.7,5.2-11.4c1.9-3.8,3.8-7.7,5.2-11.9c0.8-2.4,1.4-4.8,1.6-7.3c0,0.9-0.1,1.5,0,1.9c0.2,7,0.2,13.9,0,20.9
		c0,0.6,0.1,0.8,0.3,0.5c0.1-0.1,0.1-0.2,0.1-0.3c0.8-4.7,2.7-9,5.7-12.8c1.2-1.6,2.8-2.3,4.8-2.1c3.9,0.4,5.6,2.6,4.9,6.5
		c0,0.1,0,0.2,0,0.4c0,0.7,0.2,0.7,0.5,0c1-2.1,1.9-4.3,2.7-6.5c1.2-3.1,2-5.3,2.3-6.5c0.6-2.3,1-4.6,1.1-7
		C354.3,308.1,354.2,306.4,354.1,305.1z M366.2,278.6c1.8-4.3,2.9-9.1,3.2-14.3c0-0.7,0.1-1.4,0.2-2.1c0.1-0.7,0.1-1.4,0.2-2.1
		c0.1-1.1,0.2-2.1,0.3-3.2c0.4-3.2,0.5-6.4,0.4-9.7c0,0,0-0.2,0-0.4c0-0.4,0.1-0.5,0.4-0.4c0.1,0,0.2,0.1,0.2,0.2
		c0.7,2,1.7,5.5,3.1,10.5c0.6,2.3,0.9,4.3,0.8,6.2c0,0.1,0,0.1,0.1,0.1c0.4-0.4,0.7-0.9,0.9-1.5c0.2-0.6,0.3-1.3,0.5-1.9
		c1.5-4.1,2.6-8.3,3-12.7c0.2-2.6,0.2-5.3-0.3-7.9c-0.4-2.6-1.3-5.2-2.2-7.6c-1.9-4.9-4.6-9.3-6.8-13.7c-1.1-2.2-2.2-4.5-3.1-6.8
		c-0.9-2.3-1.5-4.8-1.9-7.3c-0.3,2.5-0.2,5.2,0.3,7.7c0.5,2.6,1.3,5,2.3,7.4c1.9,4.8,4.3,9.3,6.1,13.9c1.3,3.1,2.2,6.2,2.6,9.4
		c-1-3.6-2.6-7.1-4.9-10.3c-1.1-1.5-1.9-2.5-2.6-3c-2.8-2-5.6-4-8.5-6.1c-0.5-0.4-0.7-0.3-0.4,0.3c1.2,2.9,2,5.8,2.5,8.9
		c0.4,2.3,0.5,4.6,0.3,6.9c-0.2,2.3-0.5,4.9-1,7.8c-0.9,5-1.6,10-2.2,15c0,0.4-0.1,0.4-0.3,0.1l-4.7-8.4c-0.1-0.1-0.1-0.1-0.2,0
		c-0.2,0.8-0.4,1.5-0.5,2.3c-0.2,1-0.3,1.8-0.5,2.3c-0.6,1.6-1.6,3.2-2.9,4.5c-0.1,0.1-0.3,0.1-0.4,0.1c-0.8-0.2-1.5-0.6-2.1-1.2
		c0,0,0,0-0.1,0c0,0,0,0,0,0c0,0,0,0-0.1,0c0,0,0,0-0.1,0c0,0,0,0,0,0c0,0,0,0,0,0.1c-1.2,3.5-2.5,6.9-3.8,10.1
		c-2.2,5.5-5,10.6-8.2,15.6c-0.1,0.2-0.1,0.2,0.1,0c7.2-6.4,14.6-12.7,22.1-18.9c0.3-0.2,0.4-0.2,0.5,0.2c0.2,4.9-0.1,9.7-0.9,14.6
		c0,0-0.1,0.8-0.3,2.5c-0.2,1.2-0.5,2.4-1,3.6c-0.1,0.2,0,0.3,0.2,0.2c0.3-0.1,0.6-0.2,0.9-0.4c0.2-0.2,0.4-0.3,0.4-0.3
		C361.7,286.1,364.5,282.6,366.2,278.6z M387,279.6c-0.4-2.7-1.2-5.2-1.9-7.7c-0.7-2.5-1.4-4.9-1.9-7.6c-0.1,0.3-0.2,0.6-0.3,0.9
		c-0.1-0.5-0.1-1-0.2-1.4c-0.3,5.6-1.8,10.8-4,15.8c-2.1,5-4.7,9.8-7.4,14.6c-2.6,4.9-5.2,9.8-7.1,15.2c-1.8,5.3-2.9,11.1-2.1,16.6
		c0.6-5.6,2.2-10.7,4.5-15.7c2.2-5,4.9-9.7,7.5-14.6c2.6-4.9,5.2-9.9,6.9-15.3c0.7-2.2,1.3-4.5,1.6-6.8c0.3,2.2,0.7,4.4,1,6.5
		c0.4,2.5,0.6,5,0.6,7.5c0,2.5-0.2,5.1-0.5,7.8c1.5-2.2,2.5-4.9,3-7.6C387.5,285.1,387.4,282.3,387,279.6z M408.7,229.1
		c-1.3-1.1-2.6-2.3-3.9-3.5c-1.4-1.4-2.6-2.7-3.4-3.9c-1-1.5-1.9-3.2-2.6-4.9c-0.5-1.2-2.4-4.8-5.6-10.8c-0.3-0.5-0.6-1.3-0.9-2.4
		c0,0,0,0,0,0c0-0.1,0-0.1,0.1-0.2c1.1-0.1,2.1-0.2,3.2-0.3c2.2-0.2,4.1,0.3,5.8,1.4c0.3,0.2,0.4,0.1,0.4-0.2c0-0.3-0.1-0.6-0.2-0.8
		c-1.2-1.3-2.3-2.7-3.4-4.2c-2.8-4-5.6-7.9-8.5-11.8c0,0-0.5-0.8-1.6-2.2c-1.6-2.1-3.1-4-4.6-5.4c-1.7-1.7-3.6-3.1-5.8-4.2
		c-3.1-1.6-6.4-2.8-9.7-3.5c-0.1,0-0.2,0-0.3,0c-0.2,0-0.2,0.1-0.2,0.3c0,0.1,0.1,0.2,0.2,0.2c1.5,0.8,3.1,2,4.8,3.7
		c2,1.9,3.5,3.9,4.6,5.9c0.7,1.3,1.1,1.9,1.1,2c0.4,0.7,0.8,1.4,1.2,2.2c0.1,0.2,0,0.2-0.1,0.1c-1.1-0.7-2.3-1.1-3.6-1.3
		c-1-0.1-1.5-0.2-1.5-0.2c-0.6-0.1-1.2-0.2-1.8-0.2c-0.1,0-0.1,0,0,0.1c0.6,0.4,1,0.6,1.2,0.8c1.5,1.4,3,2.8,4.5,4.2
		c1,1,1.9,2.1,2.6,3.3c0.8,1.5,1.6,3.1,2.2,4.7c0.2,0.5,0.6,0.8,1.1,1.1c0.4,0.2,0.4,0.3,0,0.4c-2.5,0.4-4.9,1.3-7.1,2.6
		c-0.2,0.1-0.2,0.2,0,0.2c6.3,2,10.9,5.8,13.9,11.3c0.1,0.1,0,0.1-0.1,0.1c-0.5-0.3-1-0.6-1.6-0.7c-3-1-6.1-1.3-9.5-0.9
		c-0.3,0-0.4,0.1,0,0.2c0.1,0,0.2,0.1,0.4,0.2c3.9,3.6,7.4,7.3,10.4,11.5c1.5,2.1,2.9,4.4,4.2,6.7c1.3,2.3,2.4,4.7,3.3,7.1
		c2,4.8,3.1,10,4.2,15.2c0,0.1,0,0.1,0,0.2c-0.4-1-0.9-2-1.3-3c-1.4-2.9-3.2-5.7-5.2-8.3c-2-2.6-4.3-4.9-6.9-6.9
		c1.6,2.8,3.3,5.5,4.8,8.3c1.6,2.7,3,5.5,4.4,8.3c1.4,2.8,2.7,5.7,3.9,8.6c1.2,2.9,2.3,5.9,3.6,8.9c0-0.3,0-0.6,0-0.9
		c0.1-5.2-0.2-10.4-0.8-15.6c-0.3-2.7-0.7-5.4-1.3-8.1c-0.6-2.7-1.4-5.4-2.4-7.9c-1-2.6-2.3-5.1-3.7-7.4c-0.9-1.4-1.8-2.8-2.8-4.1
		c1.1,0.6,2.2,1,3.4,1.4c2.4,0.7,3.6,1.1,3.6,1.1c2.3,0.8,4.6,1.4,7,2c0.1,0,0.2,0,0.3,0C408.9,229.4,408.9,229.3,408.7,229.1z"/>
</g>
</svg>
